<svg width="467" height="466" viewBox="0 0 467 466" fill="none" xmlns="http://www.w3.org/2000/svg">
<g clip-path="url(#clip0_369_699)">
<path opacity="0.62" d="M-0.03125 0V466H466.004V0H-0.03125ZM464.761 29.0251H436.91V1.13684H464.761V29.0251ZM233.608 203.353V175.5H261.459V203.353H233.608ZM261.459 204.561V232.378H233.608V204.561H261.459ZM232.4 203.353H204.55V175.5H232.4V203.353ZM232.4 204.561V232.378H204.55V204.561H232.4ZM203.342 232.378H175.527V204.561H203.342V232.378ZM203.342 233.586V261.439H175.527V233.586H203.342ZM204.55 233.586H232.4V261.439H204.55V233.586ZM232.4 262.647V290.499H204.55V262.647H232.4ZM233.608 262.647H261.459V290.499H233.608V262.647ZM233.608 261.439V233.586H261.459V261.439H233.608ZM262.667 233.586H290.517V261.439H262.844L262.667 233.586ZM262.667 232.378V204.561H290.517V232.378H262.667ZM262.667 203.353V175.5H290.517V203.353H262.667ZM262.667 174.293V146.44H290.517V174.293H262.667ZM261.459 174.293H233.608V146.44H261.459V174.293ZM232.4 174.293H204.55V146.44H232.4V174.293ZM203.342 174.293H175.527V146.44H203.342V174.293ZM203.342 175.5V203.353H175.527V175.5H203.342ZM174.319 203.353H146.469V175.5H174.319V203.353ZM174.319 204.561V232.378H146.469V204.561H174.319ZM174.319 233.586V261.439H146.469V233.586H174.319ZM174.319 262.647V290.499H146.469V262.647H174.319ZM175.527 262.647H203.342V290.499H175.527V262.647ZM203.342 291.707V319.525H175.527V291.707H203.342ZM204.55 291.707H232.4V319.525H204.55V291.707ZM233.608 291.707H261.459V319.525H233.608V291.707ZM262.667 291.707H290.517V319.525H262.844L262.667 291.707ZM262.667 290.499V262.647H290.517V290.499H262.667ZM291.725 262.647H319.682V290.499H291.867L291.725 262.647ZM291.725 261.439V233.586H319.682V261.439H291.725ZM291.725 232.378V204.561H319.682V232.378H291.725ZM291.725 203.353V175.5H319.682V203.353H291.725ZM291.725 174.293V146.44H319.682V174.293H291.725ZM291.725 145.232V117.379H319.682V145.232H291.725ZM290.517 145.232H262.844V117.379H290.695L290.517 145.232ZM261.459 145.232H233.608V117.379H261.459V145.232ZM232.4 145.232H204.55V117.379H232.4V145.232ZM203.342 145.232H175.527V117.379H203.342V145.232ZM174.319 145.232H146.469V117.379H174.319V145.232ZM174.319 146.44V174.293H146.469V146.44H174.319ZM145.261 174.293H117.41V146.44H145.261V174.293ZM145.261 175.5V203.353H117.41V175.5H145.261ZM145.261 204.561V232.378H117.41V204.561H145.261ZM145.261 233.586V261.439H117.41V233.586H145.261ZM145.261 262.647V290.499H117.41V262.647H145.261ZM145.261 291.707V319.525H117.41V291.707H145.261ZM146.469 291.707H174.319V319.525H146.469V291.707ZM174.319 320.732V348.585H146.469V320.875L174.319 320.732ZM175.527 320.732H203.342V348.585H175.527V320.732ZM204.55 320.732H232.4V348.585H204.55V320.732ZM233.608 320.732H261.459V348.585H233.608V320.732ZM262.667 320.732H290.517V348.585H262.844L262.667 320.732ZM291.725 320.732H319.682V348.585H291.867L291.725 320.732ZM291.725 319.525V291.707H319.682V319.525H291.725ZM320.748 291.707H348.598V319.525H320.748V291.707ZM320.748 290.499V262.647H348.598V290.499H320.748ZM320.748 261.439V233.586H348.598V261.439H320.748ZM320.748 232.378V204.561H348.598V232.378H320.748ZM320.748 203.353V175.5H348.598V203.353H320.748ZM320.748 174.293V146.44H348.598V174.293H320.748ZM320.748 145.232V117.379H348.598V145.232H320.748ZM320.748 116.171V88.3542H348.598V116.171H320.748ZM319.54 116.171H291.725V88.3542H319.682L319.54 116.171ZM290.517 116.171H262.844V88.3542H290.695L290.517 116.171ZM261.459 116.171H233.608V88.3542H261.459V116.171ZM232.4 116.171H204.55V88.3542H232.4V116.171ZM203.342 116.171H175.527V88.3542H203.342V116.171ZM174.319 116.171H146.469V88.3542H174.319V116.171ZM145.261 116.171H117.41V88.3542H145.261V116.171ZM145.261 117.379V145.232H117.41V117.379H145.261ZM116.202 145.232H88.3873V117.379H116.202V145.232ZM116.202 146.44V174.293H88.3873V146.44H116.202ZM116.202 175.5V203.353H88.3873V175.5H116.202ZM116.202 204.561V232.378H88.3873V204.561H116.202ZM116.202 233.586V261.439H88.3873V233.586H116.202ZM116.202 262.647V290.499H88.3873V262.647H116.202ZM116.202 291.707V319.525H88.3873V291.707H116.202ZM116.202 320.732V348.585H88.3873V320.875L116.202 320.732ZM117.41 320.732H145.261V348.585H117.41V320.732ZM145.261 349.793V377.717H117.41V349.864L145.261 349.793ZM146.469 349.793H174.319V377.717H146.469V349.793ZM175.527 349.793H203.342V377.717H175.527V349.793ZM204.55 349.793H232.4V377.717H204.55V349.793ZM233.608 349.793H261.459V377.717H233.608V349.793ZM262.667 349.793H290.517V377.717H262.844L262.667 349.793ZM291.725 349.793H319.682V377.717H291.867L291.725 349.793ZM320.748 349.793H348.598V377.717H320.748V349.793ZM320.748 348.585V320.875H348.598V348.727L320.748 348.585ZM349.806 320.732H377.657V348.585H349.806V320.732ZM349.806 319.525V291.707H377.657V319.525H349.806ZM349.806 290.499V262.647H377.657V290.499H349.806ZM349.806 261.439V233.586H377.657V261.439H349.806ZM349.806 232.378V204.561H377.657V232.378H349.806ZM349.806 203.353V175.5H377.657V203.353H349.806ZM349.806 174.293V146.44H377.657V174.293H349.806ZM349.806 145.232V117.379H377.657V145.232H349.806ZM349.806 116.171V88.3542H377.657V116.171H349.806ZM349.806 87.1463V59.2936H377.657V87.1463H349.806ZM348.598 87.1463H320.748V59.2936H348.598V87.1463ZM319.54 87.1463H291.725V59.2936H319.682L319.54 87.1463ZM290.517 87.1463H262.844V59.2936H290.695L290.517 87.1463ZM261.459 87.1463H233.608V59.2936H261.459V87.1463ZM232.4 87.1463H204.55V59.2936H232.4V87.1463ZM203.342 87.1463H175.527V59.2936H203.342V87.1463ZM174.319 87.1463H146.469V59.2936H174.319V87.1463ZM145.261 87.1463H117.41V59.2936H145.261V87.1463ZM116.202 87.1463H88.3873V59.2936H116.202V87.1463ZM116.202 88.3542V116.171H88.3873V88.3542H116.202ZM87.1795 116.171H59.3289V88.3542H87.1795V116.171ZM87.1795 117.379V145.232H59.3289V117.379H87.1795ZM87.1795 146.44V174.293H59.3289V146.44H87.1795ZM87.1795 175.5V203.353H59.3289V175.5H87.1795ZM87.1795 204.561V232.378H59.3289V204.561H87.1795ZM87.1795 233.586V261.439H59.3289V233.586H87.1795ZM87.1795 262.647V290.499H59.3289V262.647H87.1795ZM87.1795 291.707V319.525H59.3289V291.707H87.1795ZM87.1795 320.732V348.585H59.3289V320.875L87.1795 320.732ZM87.1795 349.793V377.717H59.3289V349.864L87.1795 349.793ZM88.3873 349.793H116.202V377.717H88.3873V349.793ZM116.202 378.854V406.706H88.3873V378.854H116.202ZM117.41 378.854H145.261V406.706H117.41V378.854ZM146.469 378.854H174.319V406.706H146.469V378.854ZM175.527 378.854H203.342V406.706H175.527V378.854ZM204.55 378.854H232.4V406.706H204.55V378.854ZM233.608 378.854H261.459V406.706H233.608V378.854ZM262.667 378.854H290.517V406.706H262.844L262.667 378.854ZM291.725 378.854H319.682V406.706H291.867L291.725 378.854ZM320.748 378.854H348.598V406.706H320.748V378.854ZM349.806 378.854H377.657V406.706H349.806V378.854ZM349.806 377.646V349.793H377.657V377.717L349.806 377.646ZM378.865 349.793H406.715V377.717H378.865V349.793ZM378.865 348.585V320.875H406.715V348.727L378.865 348.585ZM378.865 319.525V291.707H406.715V319.525H378.865ZM378.865 290.499V262.647H406.715V290.499H378.865ZM378.865 261.439V233.586H406.715V261.439H378.865ZM378.865 232.378V204.561H406.715V232.378H378.865ZM378.865 203.353V175.5H406.715V203.353H378.865ZM378.865 174.293V146.44H406.715V174.293H378.865ZM378.865 145.232V117.379H406.715V145.232H378.865ZM378.865 116.171V88.3542H406.715V116.171H378.865ZM378.865 87.1463V59.2936H406.715V87.1463H378.865ZM378.865 58.0857V30.233H406.715V57.9791L378.865 58.0857ZM377.657 58.0857H349.806V30.233H377.657V58.0857ZM348.598 58.0857H320.748V30.233H348.598V58.0857ZM319.682 57.9791H291.867V30.233H319.682V57.9791ZM290.659 57.9791H262.844V30.233H290.695L290.659 57.9791ZM261.601 57.9791H233.75V30.233H261.601V57.9791ZM232.542 57.9791H204.692V30.233H232.542V57.9791ZM203.484 57.9791H175.669V30.233H203.484V57.9791ZM174.461 57.9791H146.611V30.233H174.461V57.9791ZM145.403 57.9791H117.552V30.233H145.403V57.9791ZM116.344 57.9791H88.5293V30.233H116.344V57.9791ZM87.3215 57.9791H59.471V30.233H87.3215V57.9791ZM87.3215 59.187V87.0397H59.471V59.2936L87.3215 59.187ZM58.2632 87.0397H30.4126V59.2936H58.2632V87.0397ZM58.2632 88.2476V116.065H30.4126V88.3542L58.2632 88.2476ZM58.2632 117.273V145.125H30.4126V117.379L58.2632 117.273ZM58.2632 146.333V174.186H30.4126V146.44L58.2632 146.333ZM58.2632 175.394V203.247H30.4126V175.5L58.2632 175.394ZM58.2632 204.455V232.272H30.4126V204.561L58.2632 204.455ZM58.2632 233.48V261.332H30.4126V233.48H58.2632ZM58.2632 262.54V290.393H30.4126V262.54H58.2632ZM58.2632 291.601V319.418H30.4126V291.601H58.2632ZM58.2632 320.626V348.479H30.4126V320.875L58.2632 320.626ZM58.2632 349.686V377.717H30.4126V349.864L58.2632 349.686ZM58.2632 378.747V406.6H30.4126V378.747H58.2632ZM59.471 378.747H87.3215V406.6H59.471V378.747ZM87.3215 407.808V435.625H59.471V407.914L87.3215 407.808ZM88.5293 407.808H116.344V435.625H88.5293V407.808ZM117.552 407.808H145.403V435.625H117.552V407.808ZM146.611 407.808H174.461V435.625H146.611V407.808ZM175.669 407.808H203.484V435.625H175.669V407.808ZM204.692 407.808H232.542V435.625H204.692V407.808ZM233.75 407.808H261.601V435.625H233.75V407.808ZM262.809 407.808H290.659V435.625H262.844L262.809 407.808ZM291.867 407.808H319.682V435.625H291.867V407.808ZM320.89 407.808H348.741V435.625H320.748L320.89 407.808ZM349.948 407.808H377.799V435.625H349.948V407.808ZM379.007 407.808H406.857V435.625H379.007V407.808ZM379.007 406.6V378.747H406.857V406.6H379.007ZM408.03 378.747H435.88V406.6H408.03V378.747ZM408.03 377.539V349.686H435.88V377.717L408.03 377.539ZM408.03 348.479V320.875H435.88V348.727L408.03 348.479ZM408.03 319.418V291.601H435.88V319.418H408.03ZM408.03 290.393V262.54H435.88V290.393H408.03ZM408.03 261.332V233.48H435.88V261.332H408.03ZM408.03 232.272V204.561H435.88V232.378L408.03 232.272ZM408.03 203.247V175.5H435.88V203.353L408.03 203.247ZM408.03 174.186V146.44H435.88V174.293L408.03 174.186ZM408.03 145.125V117.379H435.88V145.232L408.03 145.125ZM408.03 116.065V88.3542H435.88V116.171L408.03 116.065ZM408.03 87.0397V59.2936H435.88V87.1463L408.03 87.0397ZM408.03 57.9791V30.233H435.88V57.9791H408.03ZM408.03 28.9185V1.13684H435.88V28.954L408.03 28.9185ZM406.857 28.9185H379.007V1.13684H406.857V28.9185ZM377.799 28.9185H349.948V1.13684H377.799V28.9185ZM348.741 28.9185H320.748V1.13684H348.598L348.741 28.9185ZM319.682 28.9185H291.867V1.13684H319.682V28.9185ZM290.659 28.9185H262.844V1.13684H290.695L290.659 28.9185ZM261.601 28.9185H233.75V1.13684H261.601V28.9185ZM232.542 28.9185H204.692V1.13684H232.542V28.9185ZM203.484 28.9185H175.669V1.13684H203.484V28.9185ZM174.461 28.9185H146.611V1.13684H174.461V28.9185ZM145.403 28.9185H117.552V1.13684H145.403V28.9185ZM116.344 28.9185H88.5293V1.13684H116.344V28.9185ZM87.3215 28.9185H59.471V1.13684H87.3215V28.9185ZM58.2632 28.9185H30.4126V1.13684H58.2632V28.9185ZM58.2632 30.1264V57.9791H30.4126V30.233L58.2632 30.1264ZM29.0627 57.9791H1.2121V30.233H29.0627V57.9791ZM29.0627 59.187V87.0397H1.2121V59.2936L29.0627 59.187ZM29.0627 88.2476V116.065H1.2121V88.3542L29.0627 88.2476ZM29.0627 117.273V145.125H1.2121V117.379L29.0627 117.273ZM29.0627 146.333V174.186H1.2121V146.44L29.0627 146.333ZM29.0627 175.394V203.247H1.2121V175.5L29.0627 175.394ZM29.0627 204.455V232.272H1.2121V204.561L29.0627 204.455ZM29.0627 233.48V261.332H1.2121V233.48H29.0627ZM29.0627 262.54V290.393H1.2121V262.54H29.0627ZM29.0627 291.601V319.418H1.2121V291.601H29.0627ZM29.0627 320.626V348.479H1.2121V320.875L29.0627 320.626ZM29.0627 349.686V377.717H1.2121V349.864L29.0627 349.686ZM29.0627 378.747V406.6H1.2121V378.747H29.0627ZM29.0627 407.808V435.625H1.2121V407.914L29.0627 407.808ZM30.2705 407.808H58.1211V435.625H30.2705V407.808ZM58.1211 436.833V464.685H30.2705V436.833H58.1211ZM59.3289 436.833H87.1795V464.685H59.3289V436.833ZM88.3873 436.833H116.202V464.685H88.3873V436.833ZM117.41 436.833H145.261V464.685H117.41V436.833ZM146.469 436.833H174.319V464.685H146.469V436.833ZM175.527 436.833H203.342V464.685H175.527V436.833ZM204.55 436.833H232.4V464.685H204.55V436.833ZM233.608 436.833H261.459V464.685H233.608V436.833ZM262.667 436.833H290.517V464.685H262.844L262.667 436.833ZM291.725 436.833H319.682V464.685H291.867L291.725 436.833ZM320.748 436.833H348.598V464.685H320.748V436.833ZM349.806 436.833H377.657V464.685H349.806V436.833ZM378.865 436.833H406.715V464.685H378.865V436.833ZM407.887 436.833H435.738V464.685H407.887V436.833ZM407.887 435.625V407.914H435.738V435.731L407.887 435.625ZM436.91 407.914H464.761V435.731H436.91V407.914ZM436.91 406.706V378.854H464.761V406.706H436.91ZM436.91 377.646V349.793H464.761V377.717L436.91 377.646ZM436.91 348.585V320.875H464.761V348.727L436.91 348.585ZM436.91 319.525V291.707H464.761V319.525H436.91ZM436.91 290.499V262.647H464.761V290.499H436.91ZM436.91 261.439V233.586H464.761V261.439H436.91ZM436.91 232.378V204.561H464.761V232.378H436.91ZM436.91 203.353V175.5H464.761V203.353H436.91ZM436.91 174.293V146.44H464.761V174.293H436.91ZM436.91 145.232V117.379H464.761V145.232H436.91ZM436.91 116.171V88.3542H464.761V116.171H436.91ZM436.91 87.1463V59.2936H464.761V87.1463H436.91ZM436.91 57.9791V30.233H464.761V57.9791H436.91ZM29.0627 1.13684V28.954H1.2121V1.13684H29.0627ZM1.2121 436.868H29.0627V464.721H1.2121V436.868ZM436.91 464.792V436.939H464.761V464.792H436.91Z" fill="#D1D1D1"/>
</g>
<defs>
<clipPath id="clip0_369_699">
<rect width="466" height="466" fill="white" transform="translate(0.00195312)"/>
</clipPath>
</defs>
</svg>
