<svg width="42" height="10" viewBox="0 0 42 10" fill="none" xmlns="http://www.w3.org/2000/svg">
<path d="M41.4419 5.44194C41.686 5.19786 41.686 4.80214 41.4419 4.55806L37.4645 0.580583C37.2204 0.336505 36.8247 0.336505 36.5806 0.580583C36.3365 0.82466 36.3365 1.22039 36.5806 1.46447L40.1161 5L36.5806 8.53553C36.3365 8.77961 36.3365 9.17534 36.5806 9.41942C36.8247 9.6635 37.2204 9.6635 37.4645 9.41942L41.4419 5.44194ZM21 5.625H41V4.375H21V5.625Z" fill="#E4632C"/>
<path d="M0.558058 4.55806C0.31398 4.80214 0.31398 5.19787 0.558058 5.44194L4.53553 9.41942C4.77961 9.6635 5.17534 9.6635 5.41942 9.41942C5.6635 9.17534 5.6635 8.77961 5.41942 8.53554L1.88388 5L5.41942 1.46447C5.66349 1.22039 5.66349 0.824662 5.41942 0.580584C5.17534 0.336506 4.77961 0.336506 4.53553 0.580584L0.558058 4.55806ZM21 4.375L1 4.375L1 5.625L21 5.625L21 4.375Z" fill="#E4632C"/>
</svg>
