<svg width="1049" height="618" viewBox="0 0 1049 618" fill="none" xmlns="http://www.w3.org/2000/svg">
<line x1="0.5" y1="2.18557e-08" x2="0.499973" y2="617" stroke="#202022"/>
<line x1="87.7949" y1="8.39859e-09" x2="87.7949" y2="617" stroke="#202022"/>
<line x1="175.092" y1="8.39859e-09" x2="175.092" y2="617" stroke="#202022"/>
<line x1="262.389" y1="8.39859e-09" x2="262.389" y2="617" stroke="#202022"/>
<line x1="349.684" y1="8.39859e-09" x2="349.684" y2="617" stroke="#202022"/>
<line x1="436.979" y1="8.39859e-09" x2="436.978" y2="617" stroke="#202022"/>
<line x1="524.273" y1="8.39859e-09" x2="524.273" y2="617" stroke="#202022"/>
<line x1="611.568" y1="8.39859e-09" x2="611.568" y2="617" stroke="#202022"/>
<line x1="698.863" y1="8.39859e-09" x2="698.863" y2="617" stroke="#202022"/>
<line x1="786.16" y1="8.39859e-09" x2="786.16" y2="617" stroke="#202022"/>
<line x1="873.455" y1="8.39859e-09" x2="873.455" y2="617" stroke="#202022"/>
<line x1="960.75" y1="8.39859e-09" x2="960.75" y2="617" stroke="#202022"/>
<line x1="1048.04" y1="8.39859e-09" x2="1048.04" y2="617" stroke="#202022"/>
<line x1="1047.54" y1="0.5" x2="-0.000488407" y2="0.499968" stroke="#202022"/>
<line x1="1047.54" y1="56.5908" x2="-0.000488356" y2="56.5908" stroke="#202022"/>
<line x1="1047.54" y1="112.683" x2="-0.000488356" y2="112.683" stroke="#202022"/>
<line x1="1047.54" y1="168.773" x2="-0.000488356" y2="168.773" stroke="#202022"/>
<line x1="1047.54" y1="224.863" x2="-0.000488356" y2="224.863" stroke="#202022"/>
<line x1="1047.54" y1="280.954" x2="-0.000488356" y2="280.954" stroke="#202022"/>
<line x1="1047.54" y1="337.045" x2="-0.000488356" y2="337.045" stroke="#202022"/>
<line x1="1047.54" y1="393.137" x2="-0.000488356" y2="393.137" stroke="#202022"/>
<line x1="1047.54" y1="449.228" x2="-0.000488356" y2="449.227" stroke="#202022"/>
<line x1="1047.54" y1="505.318" x2="-0.000488356" y2="505.318" stroke="#202022"/>
<line x1="1047.54" y1="561.409" x2="-0.000488356" y2="561.409" stroke="#202022"/>
<line x1="1047.54" y1="617.5" x2="-0.000488356" y2="617.5" stroke="#202022"/>
</svg>
