<svg width="319" height="100" viewBox="0 0 319 100" fill="none" xmlns="http://www.w3.org/2000/svg">
<line x1="9.0121" y1="4.37709e-08" x2="9.0121" y2="17.3569" stroke="#2A2A2D" stroke-width="2.00272"/>
<line x1="17.3574" y1="9.0121" x2="0.000472935" y2="9.0121" stroke="#2A2A2D" stroke-width="2.00272"/>
<line x1="36.3695" y1="4.37709e-08" x2="36.3695" y2="17.3569" stroke="#2A2A2D" stroke-width="2.00272"/>
<line x1="44.7148" y1="9.0121" x2="27.3579" y2="9.0121" stroke="#2A2A2D" stroke-width="2.00272"/>
<line x1="63.726" y1="4.37709e-08" x2="63.726" y2="17.3569" stroke="#2A2A2D" stroke-width="2.00272"/>
<line x1="72.0713" y1="9.0121" x2="54.7143" y2="9.0121" stroke="#2A2A2D" stroke-width="2.00272"/>
<line x1="91.0824" y1="4.37709e-08" x2="91.0824" y2="17.3569" stroke="#2A2A2D" stroke-width="2.00272"/>
<line x1="99.4277" y1="9.0121" x2="82.0708" y2="9.0121" stroke="#2A2A2D" stroke-width="2.00272"/>
<line x1="118.44" y1="4.37709e-08" x2="118.44" y2="17.3569" stroke="#2A2A2D" stroke-width="2.00272"/>
<line x1="126.785" y1="9.0121" x2="109.428" y2="9.0121" stroke="#2A2A2D" stroke-width="2.00272"/>
<line x1="145.797" y1="4.37709e-08" x2="145.797" y2="17.3569" stroke="#2A2A2D" stroke-width="2.00272"/>
<line x1="154.143" y1="9.0121" x2="136.786" y2="9.0121" stroke="#2A2A2D" stroke-width="2.00272"/>
<line x1="173.154" y1="4.37709e-08" x2="173.154" y2="17.3569" stroke="#2A2A2D" stroke-width="2.00272"/>
<line x1="181.499" y1="9.0121" x2="164.142" y2="9.0121" stroke="#2A2A2D" stroke-width="2.00272"/>
<line x1="200.51" y1="4.37709e-08" x2="200.51" y2="17.3569" stroke="#2A2A2D" stroke-width="2.00272"/>
<line x1="208.855" y1="9.0121" x2="191.499" y2="9.0121" stroke="#2A2A2D" stroke-width="2.00272"/>
<line x1="227.868" y1="4.37709e-08" x2="227.868" y2="17.3569" stroke="#2A2A2D" stroke-width="2.00272"/>
<line x1="236.213" y1="9.0121" x2="218.856" y2="9.0121" stroke="#2A2A2D" stroke-width="2.00272"/>
<line x1="255.225" y1="4.37709e-08" x2="255.225" y2="17.3569" stroke="#2A2A2D" stroke-width="2.00272"/>
<line x1="263.57" y1="9.0121" x2="246.213" y2="9.0121" stroke="#2A2A2D" stroke-width="2.00272"/>
<line x1="282.582" y1="4.37709e-08" x2="282.582" y2="17.3569" stroke="#2A2A2D" stroke-width="2.00272"/>
<line x1="290.928" y1="9.0121" x2="273.571" y2="9.0121" stroke="#2A2A2D" stroke-width="2.00272"/>
<line x1="309.938" y1="4.37709e-08" x2="309.938" y2="17.3569" stroke="#2A2A2D" stroke-width="2.00272"/>
<line x1="318.283" y1="9.0121" x2="300.926" y2="9.0121" stroke="#2A2A2D" stroke-width="2.00272"/>
<line x1="9.0121" y1="27.3574" x2="9.0121" y2="44.7144" stroke="#2A2A2D" stroke-width="2.00272"/>
<line x1="17.3574" y1="36.3695" x2="0.000472935" y2="36.3695" stroke="#2A2A2D" stroke-width="2.00272"/>
<line x1="36.3695" y1="27.3574" x2="36.3695" y2="44.7144" stroke="#2A2A2D" stroke-width="2.00272"/>
<line x1="44.7148" y1="36.3695" x2="27.3579" y2="36.3695" stroke="#2A2A2D" stroke-width="2.00272"/>
<line x1="63.726" y1="27.3574" x2="63.726" y2="44.7144" stroke="#2A2A2D" stroke-width="2.00272"/>
<line x1="72.0713" y1="36.3695" x2="54.7143" y2="36.3695" stroke="#2A2A2D" stroke-width="2.00272"/>
<line x1="91.0824" y1="27.3574" x2="91.0824" y2="44.7144" stroke="#2A2A2D" stroke-width="2.00272"/>
<line x1="99.4277" y1="36.3695" x2="82.0708" y2="36.3695" stroke="#2A2A2D" stroke-width="2.00272"/>
<line x1="118.44" y1="27.3574" x2="118.44" y2="44.7144" stroke="#2A2A2D" stroke-width="2.00272"/>
<line x1="126.785" y1="36.3695" x2="109.428" y2="36.3695" stroke="#2A2A2D" stroke-width="2.00272"/>
<line x1="145.797" y1="27.3574" x2="145.797" y2="44.7144" stroke="#2A2A2D" stroke-width="2.00272"/>
<line x1="154.143" y1="36.3695" x2="136.786" y2="36.3695" stroke="#2A2A2D" stroke-width="2.00272"/>
<line x1="173.154" y1="27.3574" x2="173.154" y2="44.7144" stroke="#2A2A2D" stroke-width="2.00272"/>
<line x1="181.499" y1="36.3695" x2="164.142" y2="36.3695" stroke="#2A2A2D" stroke-width="2.00272"/>
<line x1="200.51" y1="27.3574" x2="200.51" y2="44.7144" stroke="#2A2A2D" stroke-width="2.00272"/>
<line x1="208.855" y1="36.3695" x2="191.499" y2="36.3695" stroke="#2A2A2D" stroke-width="2.00272"/>
<line x1="227.868" y1="27.3574" x2="227.868" y2="44.7144" stroke="#2A2A2D" stroke-width="2.00272"/>
<line x1="236.213" y1="36.3695" x2="218.856" y2="36.3695" stroke="#2A2A2D" stroke-width="2.00272"/>
<line x1="255.225" y1="27.3574" x2="255.225" y2="44.7144" stroke="#2A2A2D" stroke-width="2.00272"/>
<line x1="263.57" y1="36.3695" x2="246.213" y2="36.3695" stroke="#2A2A2D" stroke-width="2.00272"/>
<line x1="282.582" y1="27.3574" x2="282.582" y2="44.7144" stroke="#2A2A2D" stroke-width="2.00272"/>
<line x1="290.928" y1="36.3695" x2="273.571" y2="36.3695" stroke="#2A2A2D" stroke-width="2.00272"/>
<line x1="309.938" y1="27.3574" x2="309.938" y2="44.7144" stroke="#2A2A2D" stroke-width="2.00272"/>
<line x1="318.283" y1="36.3695" x2="300.926" y2="36.3695" stroke="#2A2A2D" stroke-width="2.00272"/>
<line x1="9.0121" y1="54.7139" x2="9.0121" y2="72.0708" stroke="#2A2A2D" stroke-width="2.00272"/>
<line x1="17.3574" y1="63.726" x2="0.000472935" y2="63.726" stroke="#2A2A2D" stroke-width="2.00272"/>
<line x1="36.3695" y1="54.7139" x2="36.3695" y2="72.0708" stroke="#2A2A2D" stroke-width="2.00272"/>
<line x1="44.7148" y1="63.726" x2="27.3579" y2="63.726" stroke="#2A2A2D" stroke-width="2.00272"/>
<line x1="63.726" y1="54.7139" x2="63.726" y2="72.0708" stroke="#2A2A2D" stroke-width="2.00272"/>
<line x1="72.0713" y1="63.726" x2="54.7143" y2="63.726" stroke="#2A2A2D" stroke-width="2.00272"/>
<line x1="91.0824" y1="54.7139" x2="91.0824" y2="72.0708" stroke="#2A2A2D" stroke-width="2.00272"/>
<line x1="99.4277" y1="63.726" x2="82.0708" y2="63.726" stroke="#2A2A2D" stroke-width="2.00272"/>
<line x1="118.44" y1="54.7139" x2="118.44" y2="72.0708" stroke="#2A2A2D" stroke-width="2.00272"/>
<line x1="126.785" y1="63.726" x2="109.428" y2="63.726" stroke="#2A2A2D" stroke-width="2.00272"/>
<line x1="145.797" y1="54.7139" x2="145.797" y2="72.0708" stroke="#2A2A2D" stroke-width="2.00272"/>
<line x1="154.143" y1="63.726" x2="136.786" y2="63.726" stroke="#2A2A2D" stroke-width="2.00272"/>
<line x1="173.154" y1="54.7139" x2="173.154" y2="72.0708" stroke="#2A2A2D" stroke-width="2.00272"/>
<line x1="181.499" y1="63.726" x2="164.142" y2="63.726" stroke="#2A2A2D" stroke-width="2.00272"/>
<line x1="200.51" y1="54.7139" x2="200.51" y2="72.0708" stroke="#2A2A2D" stroke-width="2.00272"/>
<line x1="208.855" y1="63.726" x2="191.499" y2="63.726" stroke="#2A2A2D" stroke-width="2.00272"/>
<line x1="227.868" y1="54.7139" x2="227.868" y2="72.0708" stroke="#2A2A2D" stroke-width="2.00272"/>
<line x1="236.213" y1="63.726" x2="218.856" y2="63.726" stroke="#2A2A2D" stroke-width="2.00272"/>
<line x1="255.225" y1="54.7139" x2="255.225" y2="72.0708" stroke="#2A2A2D" stroke-width="2.00272"/>
<line x1="263.57" y1="63.726" x2="246.213" y2="63.726" stroke="#2A2A2D" stroke-width="2.00272"/>
<line x1="282.582" y1="54.7139" x2="282.582" y2="72.0708" stroke="#2A2A2D" stroke-width="2.00272"/>
<line x1="290.928" y1="63.726" x2="273.571" y2="63.726" stroke="#2A2A2D" stroke-width="2.00272"/>
<line x1="309.938" y1="54.7139" x2="309.938" y2="72.0708" stroke="#2A2A2D" stroke-width="2.00272"/>
<line x1="318.283" y1="63.726" x2="300.926" y2="63.726" stroke="#2A2A2D" stroke-width="2.00272"/>
<line x1="9.0121" y1="82.0703" x2="9.0121" y2="99.4273" stroke="#2A2A2D" stroke-width="2.00272"/>
<line x1="17.3574" y1="91.0824" x2="0.000472935" y2="91.0824" stroke="#2A2A2D" stroke-width="2.00272"/>
<line x1="36.3695" y1="82.0703" x2="36.3695" y2="99.4273" stroke="#2A2A2D" stroke-width="2.00272"/>
<line x1="44.7148" y1="91.0824" x2="27.3579" y2="91.0824" stroke="#2A2A2D" stroke-width="2.00272"/>
<line x1="63.726" y1="82.0703" x2="63.726" y2="99.4273" stroke="#2A2A2D" stroke-width="2.00272"/>
<line x1="72.0713" y1="91.0824" x2="54.7143" y2="91.0824" stroke="#2A2A2D" stroke-width="2.00272"/>
<line x1="91.0824" y1="82.0703" x2="91.0824" y2="99.4273" stroke="#2A2A2D" stroke-width="2.00272"/>
<line x1="99.4277" y1="91.0824" x2="82.0708" y2="91.0824" stroke="#2A2A2D" stroke-width="2.00272"/>
<line x1="118.44" y1="82.0703" x2="118.44" y2="99.4273" stroke="#2A2A2D" stroke-width="2.00272"/>
<line x1="126.785" y1="91.0824" x2="109.428" y2="91.0824" stroke="#2A2A2D" stroke-width="2.00272"/>
<line x1="145.797" y1="82.0703" x2="145.797" y2="99.4273" stroke="#2A2A2D" stroke-width="2.00272"/>
<line x1="154.143" y1="91.0824" x2="136.786" y2="91.0824" stroke="#2A2A2D" stroke-width="2.00272"/>
<line x1="173.154" y1="82.0703" x2="173.154" y2="99.4273" stroke="#2A2A2D" stroke-width="2.00272"/>
<line x1="181.499" y1="91.0824" x2="164.142" y2="91.0824" stroke="#2A2A2D" stroke-width="2.00272"/>
<line x1="200.51" y1="82.0703" x2="200.51" y2="99.4273" stroke="#2A2A2D" stroke-width="2.00272"/>
<line x1="208.855" y1="91.0824" x2="191.499" y2="91.0824" stroke="#2A2A2D" stroke-width="2.00272"/>
<line x1="227.868" y1="82.0703" x2="227.868" y2="99.4273" stroke="#2A2A2D" stroke-width="2.00272"/>
<line x1="236.213" y1="91.0824" x2="218.856" y2="91.0824" stroke="#2A2A2D" stroke-width="2.00272"/>
<line x1="255.225" y1="82.0703" x2="255.225" y2="99.4273" stroke="#2A2A2D" stroke-width="2.00272"/>
<line x1="263.57" y1="91.0824" x2="246.213" y2="91.0824" stroke="#2A2A2D" stroke-width="2.00272"/>
<line x1="282.582" y1="82.0713" x2="282.582" y2="99.4282" stroke="#2A2A2D" stroke-width="2.00272"/>
<line x1="290.928" y1="91.0834" x2="273.571" y2="91.0834" stroke="#2A2A2D" stroke-width="2.00272"/>
<line x1="309.938" y1="82.0713" x2="309.938" y2="99.4282" stroke="#2A2A2D" stroke-width="2.00272"/>
<line x1="318.283" y1="91.0834" x2="300.926" y2="91.0834" stroke="#2A2A2D" stroke-width="2.00272"/>
</svg>
