<svg width="138" height="56" viewBox="0 0 138 56" fill="none" xmlns="http://www.w3.org/2000/svg">
<line x1="5.02405" y1="2.4401e-08" x2="5.02405" y2="9.67597" stroke="#2A2A2D" stroke-width="1.11646"/>
<line x1="9.67578" y1="5.02405" x2="-0.000193645" y2="5.02405" stroke="#2A2A2D" stroke-width="1.11646"/>
<line x1="20.275" y1="2.4401e-08" x2="20.275" y2="9.67597" stroke="#2A2A2D" stroke-width="1.11646"/>
<line x1="24.9268" y1="5.02405" x2="15.2508" y2="5.02405" stroke="#2A2A2D" stroke-width="1.11646"/>
<line x1="35.525" y1="2.4401e-08" x2="35.525" y2="9.67597" stroke="#2A2A2D" stroke-width="1.11646"/>
<line x1="40.1768" y1="5.02405" x2="30.5008" y2="5.02405" stroke="#2A2A2D" stroke-width="1.11646"/>
<line x1="50.775" y1="2.4401e-08" x2="50.775" y2="9.67597" stroke="#2A2A2D" stroke-width="1.11646"/>
<line x1="55.4277" y1="5.02405" x2="45.7518" y2="5.02405" stroke="#2A2A2D" stroke-width="1.11646"/>
<line x1="66.026" y1="2.4401e-08" x2="66.026" y2="9.67597" stroke="#2A2A2D" stroke-width="1.11646"/>
<line x1="70.6787" y1="5.02405" x2="61.0027" y2="5.02405" stroke="#2A2A2D" stroke-width="1.11646"/>
<line x1="81.278" y1="2.4401e-08" x2="81.278" y2="9.67597" stroke="#2A2A2D" stroke-width="1.11646"/>
<line x1="85.9297" y1="5.02405" x2="76.2537" y2="5.02405" stroke="#2A2A2D" stroke-width="1.11646"/>
<line x1="96.528" y1="2.4401e-08" x2="96.528" y2="9.67597" stroke="#2A2A2D" stroke-width="1.11646"/>
<line x1="101.18" y1="5.02405" x2="91.5037" y2="5.02405" stroke="#2A2A2D" stroke-width="1.11646"/>
<line x1="111.779" y1="2.4401e-08" x2="111.779" y2="9.67597" stroke="#2A2A2D" stroke-width="1.11646"/>
<line x1="116.431" y1="5.02405" x2="106.755" y2="5.02405" stroke="#2A2A2D" stroke-width="1.11646"/>
<line x1="127.029" y1="2.4401e-08" x2="127.029" y2="9.67597" stroke="#2A2A2D" stroke-width="1.11646"/>
<line x1="131.681" y1="5.02405" x2="122.005" y2="5.02405" stroke="#2A2A2D" stroke-width="1.11646"/>
<line x1="146.932" y1="5.02405" x2="137.256" y2="5.02405" stroke="#2A2A2D" stroke-width="1.11646"/>
<line x1="5.02405" y1="15.251" x2="5.02405" y2="24.927" stroke="#2A2A2D" stroke-width="1.11646"/>
<line x1="9.67578" y1="20.275" x2="-0.000193645" y2="20.275" stroke="#2A2A2D" stroke-width="1.11646"/>
<line x1="20.275" y1="15.251" x2="20.275" y2="24.927" stroke="#2A2A2D" stroke-width="1.11646"/>
<line x1="24.9268" y1="20.275" x2="15.2508" y2="20.275" stroke="#2A2A2D" stroke-width="1.11646"/>
<line x1="35.525" y1="15.251" x2="35.525" y2="24.927" stroke="#2A2A2D" stroke-width="1.11646"/>
<line x1="40.1768" y1="20.275" x2="30.5008" y2="20.275" stroke="#2A2A2D" stroke-width="1.11646"/>
<line x1="50.775" y1="15.251" x2="50.775" y2="24.927" stroke="#2A2A2D" stroke-width="1.11646"/>
<line x1="55.4277" y1="20.275" x2="45.7518" y2="20.275" stroke="#2A2A2D" stroke-width="1.11646"/>
<line x1="66.026" y1="15.251" x2="66.026" y2="24.927" stroke="#2A2A2D" stroke-width="1.11646"/>
<line x1="70.6787" y1="20.275" x2="61.0027" y2="20.275" stroke="#2A2A2D" stroke-width="1.11646"/>
<line x1="81.278" y1="15.251" x2="81.278" y2="24.927" stroke="#2A2A2D" stroke-width="1.11646"/>
<line x1="85.9297" y1="20.275" x2="76.2537" y2="20.275" stroke="#2A2A2D" stroke-width="1.11646"/>
<line x1="96.528" y1="15.251" x2="96.528" y2="24.927" stroke="#2A2A2D" stroke-width="1.11646"/>
<line x1="101.18" y1="20.275" x2="91.5037" y2="20.275" stroke="#2A2A2D" stroke-width="1.11646"/>
<line x1="111.779" y1="15.251" x2="111.779" y2="24.927" stroke="#2A2A2D" stroke-width="1.11646"/>
<line x1="116.431" y1="20.275" x2="106.755" y2="20.275" stroke="#2A2A2D" stroke-width="1.11646"/>
<line x1="127.029" y1="15.251" x2="127.029" y2="24.927" stroke="#2A2A2D" stroke-width="1.11646"/>
<line x1="131.681" y1="20.275" x2="122.005" y2="20.275" stroke="#2A2A2D" stroke-width="1.11646"/>
<line x1="146.932" y1="20.275" x2="137.256" y2="20.275" stroke="#2A2A2D" stroke-width="1.11646"/>
<line x1="5.02405" y1="30.502" x2="5.02405" y2="40.1779" stroke="#2A2A2D" stroke-width="1.11646"/>
<line x1="9.67578" y1="35.526" x2="-0.000193645" y2="35.526" stroke="#2A2A2D" stroke-width="1.11646"/>
<line x1="20.275" y1="30.502" x2="20.275" y2="40.1779" stroke="#2A2A2D" stroke-width="1.11646"/>
<line x1="24.9268" y1="35.526" x2="15.2508" y2="35.526" stroke="#2A2A2D" stroke-width="1.11646"/>
<line x1="35.526" y1="30.502" x2="35.526" y2="40.1779" stroke="#2A2A2D" stroke-width="1.11646"/>
<line x1="40.1777" y1="35.526" x2="30.5018" y2="35.526" stroke="#2A2A2D" stroke-width="1.11646"/>
<line x1="50.776" y1="30.502" x2="50.776" y2="40.1779" stroke="#2A2A2D" stroke-width="1.11646"/>
<line x1="55.4277" y1="35.526" x2="45.7518" y2="35.526" stroke="#2A2A2D" stroke-width="1.11646"/>
<line x1="66.026" y1="30.502" x2="66.026" y2="40.1779" stroke="#2A2A2D" stroke-width="1.11646"/>
<line x1="70.6777" y1="35.526" x2="61.0018" y2="35.526" stroke="#2A2A2D" stroke-width="1.11646"/>
<line x1="81.278" y1="30.502" x2="81.278" y2="40.1779" stroke="#2A2A2D" stroke-width="1.11646"/>
<line x1="85.9297" y1="35.526" x2="76.2537" y2="35.526" stroke="#2A2A2D" stroke-width="1.11646"/>
<line x1="96.528" y1="30.502" x2="96.528" y2="40.1779" stroke="#2A2A2D" stroke-width="1.11646"/>
<line x1="101.18" y1="35.526" x2="91.5037" y2="35.526" stroke="#2A2A2D" stroke-width="1.11646"/>
<line x1="111.778" y1="30.502" x2="111.778" y2="40.1779" stroke="#2A2A2D" stroke-width="1.11646"/>
<line x1="116.43" y1="35.526" x2="106.754" y2="35.526" stroke="#2A2A2D" stroke-width="1.11646"/>
<line x1="127.03" y1="30.502" x2="127.03" y2="40.1779" stroke="#2A2A2D" stroke-width="1.11646"/>
<line x1="131.682" y1="35.526" x2="122.006" y2="35.526" stroke="#2A2A2D" stroke-width="1.11646"/>
<line x1="146.932" y1="35.526" x2="137.256" y2="35.526" stroke="#2A2A2D" stroke-width="1.11646"/>
<line x1="5.02405" y1="45.752" x2="5.02405" y2="55.4279" stroke="#2A2A2D" stroke-width="1.11646"/>
<line x1="9.67578" y1="50.776" x2="-0.000193645" y2="50.776" stroke="#2A2A2D" stroke-width="1.11646"/>
<line x1="20.275" y1="45.752" x2="20.275" y2="55.4279" stroke="#2A2A2D" stroke-width="1.11646"/>
<line x1="24.9268" y1="50.776" x2="15.2508" y2="50.776" stroke="#2A2A2D" stroke-width="1.11646"/>
<line x1="35.525" y1="45.752" x2="35.525" y2="55.4279" stroke="#2A2A2D" stroke-width="1.11646"/>
<line x1="40.1768" y1="50.776" x2="30.5008" y2="50.776" stroke="#2A2A2D" stroke-width="1.11646"/>
<line x1="50.775" y1="45.752" x2="50.775" y2="55.4279" stroke="#2A2A2D" stroke-width="1.11646"/>
<line x1="55.4277" y1="50.776" x2="45.7518" y2="50.776" stroke="#2A2A2D" stroke-width="1.11646"/>
<line x1="66.026" y1="45.752" x2="66.026" y2="55.4279" stroke="#2A2A2D" stroke-width="1.11646"/>
<line x1="70.6787" y1="50.776" x2="61.0027" y2="50.776" stroke="#2A2A2D" stroke-width="1.11646"/>
<line x1="81.278" y1="45.752" x2="81.278" y2="55.4279" stroke="#2A2A2D" stroke-width="1.11646"/>
<line x1="85.9297" y1="50.776" x2="76.2537" y2="50.776" stroke="#2A2A2D" stroke-width="1.11646"/>
<line x1="96.528" y1="45.752" x2="96.528" y2="55.4279" stroke="#2A2A2D" stroke-width="1.11646"/>
<line x1="101.18" y1="50.776" x2="91.5037" y2="50.776" stroke="#2A2A2D" stroke-width="1.11646"/>
<line x1="111.779" y1="45.752" x2="111.779" y2="55.4279" stroke="#2A2A2D" stroke-width="1.11646"/>
<line x1="116.431" y1="50.776" x2="106.755" y2="50.776" stroke="#2A2A2D" stroke-width="1.11646"/>
<line x1="127.029" y1="45.752" x2="127.029" y2="55.4279" stroke="#2A2A2D" stroke-width="1.11646"/>
<line x1="131.681" y1="50.776" x2="122.005" y2="50.776" stroke="#2A2A2D" stroke-width="1.11646"/>
<line x1="146.932" y1="50.776" x2="137.256" y2="50.776" stroke="#2A2A2D" stroke-width="1.11646"/>
</svg>
