<svg width="319" height="73" viewBox="0 0 319 73" fill="none" xmlns="http://www.w3.org/2000/svg">
<line x1="9.01162" y1="4.37709e-08" x2="9.01162" y2="17.3569" stroke="#2A2A2D" stroke-width="2.00272"/>
<line x1="17.3569" y1="9.0121" x2="-1.53463e-05" y2="9.0121" stroke="#2A2A2D" stroke-width="2.00272"/>
<line x1="36.369" y1="4.37709e-08" x2="36.369" y2="17.3569" stroke="#2A2A2D" stroke-width="2.00272"/>
<line x1="44.7144" y1="9.0121" x2="27.3574" y2="9.0121" stroke="#2A2A2D" stroke-width="2.00272"/>
<line x1="63.7255" y1="4.37709e-08" x2="63.7255" y2="17.3569" stroke="#2A2A2D" stroke-width="2.00272"/>
<line x1="72.0708" y1="9.0121" x2="54.7139" y2="9.0121" stroke="#2A2A2D" stroke-width="2.00272"/>
<line x1="91.0819" y1="4.37709e-08" x2="91.0819" y2="17.3569" stroke="#2A2A2D" stroke-width="2.00272"/>
<line x1="99.4272" y1="9.0121" x2="82.0703" y2="9.0121" stroke="#2A2A2D" stroke-width="2.00272"/>
<line x1="118.439" y1="4.37709e-08" x2="118.439" y2="17.3569" stroke="#2A2A2D" stroke-width="2.00272"/>
<line x1="126.785" y1="9.0121" x2="109.428" y2="9.0121" stroke="#2A2A2D" stroke-width="2.00272"/>
<line x1="145.797" y1="4.37709e-08" x2="145.797" y2="17.3569" stroke="#2A2A2D" stroke-width="2.00272"/>
<line x1="154.142" y1="9.0121" x2="136.785" y2="9.0121" stroke="#2A2A2D" stroke-width="2.00272"/>
<line x1="173.153" y1="4.37709e-08" x2="173.153" y2="17.3569" stroke="#2A2A2D" stroke-width="2.00272"/>
<line x1="181.499" y1="9.0121" x2="164.142" y2="9.0121" stroke="#2A2A2D" stroke-width="2.00272"/>
<line x1="200.51" y1="4.37709e-08" x2="200.51" y2="17.3569" stroke="#2A2A2D" stroke-width="2.00272"/>
<line x1="208.855" y1="9.0121" x2="191.498" y2="9.0121" stroke="#2A2A2D" stroke-width="2.00272"/>
<line x1="227.867" y1="4.37709e-08" x2="227.867" y2="17.3569" stroke="#2A2A2D" stroke-width="2.00272"/>
<line x1="236.212" y1="9.0121" x2="218.855" y2="9.0121" stroke="#2A2A2D" stroke-width="2.00272"/>
<line x1="255.225" y1="4.37709e-08" x2="255.225" y2="17.3569" stroke="#2A2A2D" stroke-width="2.00272"/>
<line x1="263.57" y1="9.0121" x2="246.213" y2="9.0121" stroke="#2A2A2D" stroke-width="2.00272"/>
<line x1="282.582" y1="4.37709e-08" x2="282.582" y2="17.3569" stroke="#2A2A2D" stroke-width="2.00272"/>
<line x1="290.927" y1="9.0121" x2="273.57" y2="9.0121" stroke="#2A2A2D" stroke-width="2.00272"/>
<line x1="309.937" y1="4.37709e-08" x2="309.937" y2="17.3569" stroke="#2A2A2D" stroke-width="2.00272"/>
<line x1="318.283" y1="9.0121" x2="300.926" y2="9.0121" stroke="#2A2A2D" stroke-width="2.00272"/>
<line x1="9.01162" y1="27.3574" x2="9.01162" y2="44.7144" stroke="#2A2A2D" stroke-width="2.00272"/>
<line x1="17.3569" y1="36.3695" x2="-1.53463e-05" y2="36.3695" stroke="#2A2A2D" stroke-width="2.00272"/>
<line x1="36.369" y1="27.3574" x2="36.369" y2="44.7144" stroke="#2A2A2D" stroke-width="2.00272"/>
<line x1="44.7144" y1="36.3695" x2="27.3574" y2="36.3695" stroke="#2A2A2D" stroke-width="2.00272"/>
<line x1="63.7255" y1="27.3574" x2="63.7255" y2="44.7144" stroke="#2A2A2D" stroke-width="2.00272"/>
<line x1="72.0708" y1="36.3695" x2="54.7139" y2="36.3695" stroke="#2A2A2D" stroke-width="2.00272"/>
<line x1="91.0819" y1="27.3574" x2="91.0819" y2="44.7144" stroke="#2A2A2D" stroke-width="2.00272"/>
<line x1="99.4272" y1="36.3695" x2="82.0703" y2="36.3695" stroke="#2A2A2D" stroke-width="2.00272"/>
<line x1="118.439" y1="27.3574" x2="118.439" y2="44.7144" stroke="#2A2A2D" stroke-width="2.00272"/>
<line x1="126.785" y1="36.3695" x2="109.428" y2="36.3695" stroke="#2A2A2D" stroke-width="2.00272"/>
<line x1="145.797" y1="27.3574" x2="145.797" y2="44.7144" stroke="#2A2A2D" stroke-width="2.00272"/>
<line x1="154.142" y1="36.3695" x2="136.785" y2="36.3695" stroke="#2A2A2D" stroke-width="2.00272"/>
<line x1="173.153" y1="27.3574" x2="173.153" y2="44.7144" stroke="#2A2A2D" stroke-width="2.00272"/>
<line x1="181.499" y1="36.3695" x2="164.142" y2="36.3695" stroke="#2A2A2D" stroke-width="2.00272"/>
<line x1="200.51" y1="27.3574" x2="200.51" y2="44.7144" stroke="#2A2A2D" stroke-width="2.00272"/>
<line x1="208.855" y1="36.3695" x2="191.498" y2="36.3695" stroke="#2A2A2D" stroke-width="2.00272"/>
<line x1="227.867" y1="27.3574" x2="227.867" y2="44.7144" stroke="#2A2A2D" stroke-width="2.00272"/>
<line x1="236.212" y1="36.3695" x2="218.855" y2="36.3695" stroke="#2A2A2D" stroke-width="2.00272"/>
<line x1="255.225" y1="27.3574" x2="255.225" y2="44.7144" stroke="#2A2A2D" stroke-width="2.00272"/>
<line x1="263.57" y1="36.3695" x2="246.213" y2="36.3695" stroke="#2A2A2D" stroke-width="2.00272"/>
<line x1="282.582" y1="27.3574" x2="282.582" y2="44.7144" stroke="#2A2A2D" stroke-width="2.00272"/>
<line x1="290.927" y1="36.3695" x2="273.57" y2="36.3695" stroke="#2A2A2D" stroke-width="2.00272"/>
<line x1="309.937" y1="27.3574" x2="309.937" y2="44.7144" stroke="#2A2A2D" stroke-width="2.00272"/>
<line x1="318.283" y1="36.3695" x2="300.926" y2="36.3695" stroke="#2A2A2D" stroke-width="2.00272"/>
<line x1="9.01162" y1="54.7139" x2="9.01162" y2="72.0708" stroke="#2A2A2D" stroke-width="2.00272"/>
<line x1="17.3569" y1="63.726" x2="-1.53463e-05" y2="63.726" stroke="#2A2A2D" stroke-width="2.00272"/>
<line x1="36.369" y1="54.7139" x2="36.369" y2="72.0708" stroke="#2A2A2D" stroke-width="2.00272"/>
<line x1="44.7144" y1="63.726" x2="27.3574" y2="63.726" stroke="#2A2A2D" stroke-width="2.00272"/>
<line x1="63.7255" y1="54.7139" x2="63.7255" y2="72.0708" stroke="#2A2A2D" stroke-width="2.00272"/>
<line x1="72.0708" y1="63.726" x2="54.7139" y2="63.726" stroke="#2A2A2D" stroke-width="2.00272"/>
<line x1="91.0819" y1="54.7139" x2="91.0819" y2="72.0708" stroke="#2A2A2D" stroke-width="2.00272"/>
<line x1="99.4272" y1="63.726" x2="82.0703" y2="63.726" stroke="#2A2A2D" stroke-width="2.00272"/>
<line x1="118.439" y1="54.7139" x2="118.439" y2="72.0708" stroke="#2A2A2D" stroke-width="2.00272"/>
<line x1="126.785" y1="63.726" x2="109.428" y2="63.726" stroke="#2A2A2D" stroke-width="2.00272"/>
<line x1="145.797" y1="54.7139" x2="145.797" y2="72.0708" stroke="#2A2A2D" stroke-width="2.00272"/>
<line x1="154.142" y1="63.726" x2="136.785" y2="63.726" stroke="#2A2A2D" stroke-width="2.00272"/>
<line x1="173.153" y1="54.7139" x2="173.153" y2="72.0708" stroke="#2A2A2D" stroke-width="2.00272"/>
<line x1="181.499" y1="63.726" x2="164.142" y2="63.726" stroke="#2A2A2D" stroke-width="2.00272"/>
<line x1="200.51" y1="54.7139" x2="200.51" y2="72.0708" stroke="#2A2A2D" stroke-width="2.00272"/>
<line x1="208.855" y1="63.726" x2="191.498" y2="63.726" stroke="#2A2A2D" stroke-width="2.00272"/>
<line x1="227.867" y1="54.7139" x2="227.867" y2="72.0708" stroke="#2A2A2D" stroke-width="2.00272"/>
<line x1="236.212" y1="63.726" x2="218.855" y2="63.726" stroke="#2A2A2D" stroke-width="2.00272"/>
<line x1="255.225" y1="54.7139" x2="255.225" y2="72.0708" stroke="#2A2A2D" stroke-width="2.00272"/>
<line x1="263.57" y1="63.726" x2="246.213" y2="63.726" stroke="#2A2A2D" stroke-width="2.00272"/>
<line x1="282.582" y1="54.7139" x2="282.582" y2="72.0708" stroke="#2A2A2D" stroke-width="2.00272"/>
<line x1="290.927" y1="63.726" x2="273.57" y2="63.726" stroke="#2A2A2D" stroke-width="2.00272"/>
<line x1="309.937" y1="54.7139" x2="309.937" y2="72.0708" stroke="#2A2A2D" stroke-width="2.00272"/>
<line x1="318.283" y1="63.726" x2="300.926" y2="63.726" stroke="#2A2A2D" stroke-width="2.00272"/>
</svg>
