<svg width="151" height="209" viewBox="0 0 151 209" fill="none" xmlns="http://www.w3.org/2000/svg">
<line x1="5.15323" y1="4.37709e-08" x2="5.15323" y2="17.3569" stroke="#2A2A2D" stroke-width="2.00272"/>
<line x1="13.4986" y1="9.0121" x2="-3.8584" y2="9.0121" stroke="#2A2A2D" stroke-width="2.00272"/>
<line x1="32.5097" y1="4.37709e-08" x2="32.5097" y2="17.3569" stroke="#2A2A2D" stroke-width="2.00272"/>
<line x1="40.855" y1="9.0121" x2="23.498" y2="9.0121" stroke="#2A2A2D" stroke-width="2.00272"/>
<line x1="59.8671" y1="4.37709e-08" x2="59.8671" y2="17.3569" stroke="#2A2A2D" stroke-width="2.00272"/>
<line x1="68.2124" y1="9.0121" x2="50.8555" y2="9.0121" stroke="#2A2A2D" stroke-width="2.00272"/>
<line x1="87.2245" y1="4.37709e-08" x2="87.2245" y2="17.3569" stroke="#2A2A2D" stroke-width="2.00272"/>
<line x1="95.5698" y1="9.0121" x2="78.2129" y2="9.0121" stroke="#2A2A2D" stroke-width="2.00272"/>
<line x1="114.582" y1="4.37709e-08" x2="114.582" y2="17.3569" stroke="#2A2A2D" stroke-width="2.00272"/>
<line x1="122.927" y1="9.0121" x2="105.57" y2="9.0121" stroke="#2A2A2D" stroke-width="2.00272"/>
<line x1="141.937" y1="4.37709e-08" x2="141.937" y2="17.3569" stroke="#2A2A2D" stroke-width="2.00272"/>
<line x1="150.283" y1="9.0121" x2="132.926" y2="9.0121" stroke="#2A2A2D" stroke-width="2.00272"/>
<line x1="5.15323" y1="27.3569" x2="5.15323" y2="44.7139" stroke="#2A2A2D" stroke-width="2.00272"/>
<line x1="13.4986" y1="36.3695" x2="-3.8584" y2="36.3695" stroke="#2A2A2D" stroke-width="2.00272"/>
<line x1="32.5097" y1="27.3569" x2="32.5097" y2="44.7139" stroke="#2A2A2D" stroke-width="2.00272"/>
<line x1="40.855" y1="36.3695" x2="23.498" y2="36.3695" stroke="#2A2A2D" stroke-width="2.00272"/>
<line x1="59.8671" y1="27.3569" x2="59.8671" y2="44.7139" stroke="#2A2A2D" stroke-width="2.00272"/>
<line x1="68.2124" y1="36.3695" x2="50.8555" y2="36.3695" stroke="#2A2A2D" stroke-width="2.00272"/>
<line x1="87.2245" y1="27.3569" x2="87.2245" y2="44.7139" stroke="#2A2A2D" stroke-width="2.00272"/>
<line x1="95.5698" y1="36.3695" x2="78.2129" y2="36.3695" stroke="#2A2A2D" stroke-width="2.00272"/>
<line x1="114.582" y1="27.3569" x2="114.582" y2="44.7139" stroke="#2A2A2D" stroke-width="2.00272"/>
<line x1="122.927" y1="36.369" x2="105.57" y2="36.369" stroke="#2A2A2D" stroke-width="2.00272"/>
<line x1="141.937" y1="27.3569" x2="141.937" y2="44.7139" stroke="#2A2A2D" stroke-width="2.00272"/>
<line x1="150.283" y1="36.369" x2="132.926" y2="36.369" stroke="#2A2A2D" stroke-width="2.00272"/>
<line x1="5.15323" y1="54.7139" x2="5.15323" y2="72.0708" stroke="#2A2A2D" stroke-width="2.00272"/>
<line x1="13.4986" y1="63.726" x2="-3.8584" y2="63.726" stroke="#2A2A2D" stroke-width="2.00272"/>
<line x1="32.5097" y1="54.7139" x2="32.5097" y2="72.0708" stroke="#2A2A2D" stroke-width="2.00272"/>
<line x1="40.855" y1="63.726" x2="23.498" y2="63.726" stroke="#2A2A2D" stroke-width="2.00272"/>
<line x1="59.8671" y1="54.7139" x2="59.8671" y2="72.0708" stroke="#2A2A2D" stroke-width="2.00272"/>
<line x1="68.2124" y1="63.726" x2="50.8555" y2="63.726" stroke="#2A2A2D" stroke-width="2.00272"/>
<line x1="87.2245" y1="54.7139" x2="87.2245" y2="72.0708" stroke="#2A2A2D" stroke-width="2.00272"/>
<line x1="95.5698" y1="63.726" x2="78.2129" y2="63.726" stroke="#2A2A2D" stroke-width="2.00272"/>
<line x1="114.582" y1="54.7139" x2="114.582" y2="72.0708" stroke="#2A2A2D" stroke-width="2.00272"/>
<line x1="122.927" y1="63.726" x2="105.57" y2="63.726" stroke="#2A2A2D" stroke-width="2.00272"/>
<line x1="141.937" y1="54.7139" x2="141.937" y2="72.0708" stroke="#2A2A2D" stroke-width="2.00272"/>
<line x1="150.283" y1="63.726" x2="132.926" y2="63.726" stroke="#2A2A2D" stroke-width="2.00272"/>
<line x1="5.15323" y1="82.0708" x2="5.15323" y2="99.4277" stroke="#2A2A2D" stroke-width="2.00272"/>
<line x1="13.4986" y1="91.0834" x2="-3.8584" y2="91.0834" stroke="#2A2A2D" stroke-width="2.00272"/>
<line x1="32.5097" y1="82.0708" x2="32.5097" y2="99.4277" stroke="#2A2A2D" stroke-width="2.00272"/>
<line x1="40.855" y1="91.0834" x2="23.498" y2="91.0834" stroke="#2A2A2D" stroke-width="2.00272"/>
<line x1="59.8671" y1="82.0708" x2="59.8671" y2="99.4277" stroke="#2A2A2D" stroke-width="2.00272"/>
<line x1="68.2124" y1="91.0834" x2="50.8555" y2="91.0834" stroke="#2A2A2D" stroke-width="2.00272"/>
<line x1="87.2245" y1="82.0708" x2="87.2245" y2="99.4277" stroke="#2A2A2D" stroke-width="2.00272"/>
<line x1="95.5698" y1="91.0834" x2="78.2129" y2="91.0834" stroke="#2A2A2D" stroke-width="2.00272"/>
<line x1="114.582" y1="82.0708" x2="114.582" y2="99.4277" stroke="#2A2A2D" stroke-width="2.00272"/>
<line x1="122.927" y1="91.0829" x2="105.57" y2="91.0829" stroke="#2A2A2D" stroke-width="2.00272"/>
<line x1="141.937" y1="82.0708" x2="141.937" y2="99.4277" stroke="#2A2A2D" stroke-width="2.00272"/>
<line x1="150.283" y1="91.0829" x2="132.926" y2="91.0829" stroke="#2A2A2D" stroke-width="2.00272"/>
<line x1="5.15323" y1="109" x2="5.15323" y2="126.357" stroke="#2A2A2D" stroke-width="2.00272"/>
<line x1="13.4986" y1="118.012" x2="-3.8584" y2="118.012" stroke="#2A2A2D" stroke-width="2.00272"/>
<line x1="32.5097" y1="109" x2="32.5097" y2="126.357" stroke="#2A2A2D" stroke-width="2.00272"/>
<line x1="40.855" y1="118.012" x2="23.498" y2="118.012" stroke="#2A2A2D" stroke-width="2.00272"/>
<line x1="59.8671" y1="109" x2="59.8671" y2="126.357" stroke="#2A2A2D" stroke-width="2.00272"/>
<line x1="68.2124" y1="118.012" x2="50.8555" y2="118.012" stroke="#2A2A2D" stroke-width="2.00272"/>
<line x1="87.2245" y1="109" x2="87.2245" y2="126.357" stroke="#2A2A2D" stroke-width="2.00272"/>
<line x1="95.5698" y1="118.012" x2="78.2129" y2="118.012" stroke="#2A2A2D" stroke-width="2.00272"/>
<line x1="114.582" y1="109" x2="114.582" y2="126.357" stroke="#2A2A2D" stroke-width="2.00272"/>
<line x1="122.927" y1="118.012" x2="105.57" y2="118.012" stroke="#2A2A2D" stroke-width="2.00272"/>
<line x1="141.937" y1="109" x2="141.937" y2="126.357" stroke="#2A2A2D" stroke-width="2.00272"/>
<line x1="150.283" y1="118.012" x2="132.926" y2="118.012" stroke="#2A2A2D" stroke-width="2.00272"/>
<line x1="5.15323" y1="136.357" x2="5.15323" y2="153.714" stroke="#2A2A2D" stroke-width="2.00272"/>
<line x1="13.4986" y1="145.37" x2="-3.8584" y2="145.37" stroke="#2A2A2D" stroke-width="2.00272"/>
<line x1="32.5097" y1="136.357" x2="32.5097" y2="153.714" stroke="#2A2A2D" stroke-width="2.00272"/>
<line x1="40.855" y1="145.37" x2="23.498" y2="145.37" stroke="#2A2A2D" stroke-width="2.00272"/>
<line x1="59.8671" y1="136.357" x2="59.8671" y2="153.714" stroke="#2A2A2D" stroke-width="2.00272"/>
<line x1="68.2124" y1="145.37" x2="50.8555" y2="145.37" stroke="#2A2A2D" stroke-width="2.00272"/>
<line x1="87.2245" y1="136.357" x2="87.2245" y2="153.714" stroke="#2A2A2D" stroke-width="2.00272"/>
<line x1="95.5698" y1="145.37" x2="78.2129" y2="145.37" stroke="#2A2A2D" stroke-width="2.00272"/>
<line x1="114.582" y1="136.357" x2="114.582" y2="153.714" stroke="#2A2A2D" stroke-width="2.00272"/>
<line x1="122.927" y1="145.369" x2="105.57" y2="145.369" stroke="#2A2A2D" stroke-width="2.00272"/>
<line x1="141.937" y1="136.357" x2="141.937" y2="153.714" stroke="#2A2A2D" stroke-width="2.00272"/>
<line x1="150.283" y1="145.369" x2="132.926" y2="145.369" stroke="#2A2A2D" stroke-width="2.00272"/>
<line x1="5.15323" y1="163.714" x2="5.15323" y2="181.071" stroke="#2A2A2D" stroke-width="2.00272"/>
<line x1="13.4986" y1="172.726" x2="-3.8584" y2="172.726" stroke="#2A2A2D" stroke-width="2.00272"/>
<line x1="32.5097" y1="163.714" x2="32.5097" y2="181.071" stroke="#2A2A2D" stroke-width="2.00272"/>
<line x1="40.855" y1="172.726" x2="23.498" y2="172.726" stroke="#2A2A2D" stroke-width="2.00272"/>
<line x1="59.8671" y1="163.714" x2="59.8671" y2="181.071" stroke="#2A2A2D" stroke-width="2.00272"/>
<line x1="68.2124" y1="172.726" x2="50.8555" y2="172.726" stroke="#2A2A2D" stroke-width="2.00272"/>
<line x1="87.2245" y1="163.714" x2="87.2245" y2="181.071" stroke="#2A2A2D" stroke-width="2.00272"/>
<line x1="95.5698" y1="172.726" x2="78.2129" y2="172.726" stroke="#2A2A2D" stroke-width="2.00272"/>
<line x1="114.582" y1="163.714" x2="114.582" y2="181.071" stroke="#2A2A2D" stroke-width="2.00272"/>
<line x1="122.927" y1="172.726" x2="105.57" y2="172.726" stroke="#2A2A2D" stroke-width="2.00272"/>
<line x1="141.937" y1="163.714" x2="141.937" y2="181.071" stroke="#2A2A2D" stroke-width="2.00272"/>
<line x1="150.283" y1="172.726" x2="132.926" y2="172.726" stroke="#2A2A2D" stroke-width="2.00272"/>
<line x1="5.15323" y1="191.071" x2="5.15323" y2="208.428" stroke="#2A2A2D" stroke-width="2.00272"/>
<line x1="13.4986" y1="200.083" x2="-3.8584" y2="200.083" stroke="#2A2A2D" stroke-width="2.00272"/>
<line x1="32.5097" y1="191.071" x2="32.5097" y2="208.428" stroke="#2A2A2D" stroke-width="2.00272"/>
<line x1="40.855" y1="200.083" x2="23.498" y2="200.083" stroke="#2A2A2D" stroke-width="2.00272"/>
<line x1="59.8671" y1="191.071" x2="59.8671" y2="208.428" stroke="#2A2A2D" stroke-width="2.00272"/>
<line x1="68.2124" y1="200.083" x2="50.8555" y2="200.083" stroke="#2A2A2D" stroke-width="2.00272"/>
<line x1="87.2245" y1="191.071" x2="87.2245" y2="208.428" stroke="#2A2A2D" stroke-width="2.00272"/>
<line x1="95.5698" y1="200.083" x2="78.2129" y2="200.083" stroke="#2A2A2D" stroke-width="2.00272"/>
<line x1="114.582" y1="191.071" x2="114.582" y2="208.428" stroke="#2A2A2D" stroke-width="2.00272"/>
<line x1="122.927" y1="200.083" x2="105.57" y2="200.083" stroke="#2A2A2D" stroke-width="2.00272"/>
<line x1="141.937" y1="191.071" x2="141.937" y2="208.428" stroke="#2A2A2D" stroke-width="2.00272"/>
<line x1="150.283" y1="200.083" x2="132.926" y2="200.083" stroke="#2A2A2D" stroke-width="2.00272"/>
</svg>
