<svg width="210" height="209" viewBox="0 0 210 209" fill="none" xmlns="http://www.w3.org/2000/svg">
<line x1="9.43937" y1="4.37709e-08" x2="9.43937" y2="17.3569" stroke="#2A2A2D" stroke-width="2.00272"/>
<line x1="17.7847" y1="9.0121" x2="0.427734" y2="9.0121" stroke="#2A2A2D" stroke-width="2.00272"/>
<line x1="36.7968" y1="4.37709e-08" x2="36.7968" y2="17.3569" stroke="#2A2A2D" stroke-width="2.00272"/>
<line x1="45.1421" y1="9.0121" x2="27.7851" y2="9.0121" stroke="#2A2A2D" stroke-width="2.00272"/>
<line x1="64.1532" y1="4.37709e-08" x2="64.1532" y2="17.3569" stroke="#2A2A2D" stroke-width="2.00272"/>
<line x1="72.4985" y1="9.0121" x2="55.1416" y2="9.0121" stroke="#2A2A2D" stroke-width="2.00272"/>
<line x1="91.5097" y1="4.37709e-08" x2="91.5097" y2="17.3569" stroke="#2A2A2D" stroke-width="2.00272"/>
<line x1="99.855" y1="9.0121" x2="82.498" y2="9.0121" stroke="#2A2A2D" stroke-width="2.00272"/>
<line x1="118.867" y1="4.37709e-08" x2="118.867" y2="17.3569" stroke="#2A2A2D" stroke-width="2.00272"/>
<line x1="127.212" y1="9.0121" x2="109.855" y2="9.0121" stroke="#2A2A2D" stroke-width="2.00272"/>
<line x1="146.225" y1="4.37709e-08" x2="146.225" y2="17.3569" stroke="#2A2A2D" stroke-width="2.00272"/>
<line x1="154.57" y1="9.0121" x2="137.213" y2="9.0121" stroke="#2A2A2D" stroke-width="2.00272"/>
<line x1="173.582" y1="4.37709e-08" x2="173.582" y2="17.3569" stroke="#2A2A2D" stroke-width="2.00272"/>
<line x1="181.927" y1="9.0121" x2="164.57" y2="9.0121" stroke="#2A2A2D" stroke-width="2.00272"/>
<line x1="200.937" y1="4.37709e-08" x2="200.937" y2="17.3569" stroke="#2A2A2D" stroke-width="2.00272"/>
<line x1="209.283" y1="9.0121" x2="191.926" y2="9.0121" stroke="#2A2A2D" stroke-width="2.00272"/>
<line x1="9.43937" y1="27.3574" x2="9.43937" y2="44.7144" stroke="#2A2A2D" stroke-width="2.00272"/>
<line x1="17.7847" y1="36.3705" x2="0.427719" y2="36.3705" stroke="#2A2A2D" stroke-width="2.00272"/>
<line x1="36.7968" y1="27.3574" x2="36.7968" y2="44.7144" stroke="#2A2A2D" stroke-width="2.00272"/>
<line x1="45.1421" y1="36.3705" x2="27.7851" y2="36.3705" stroke="#2A2A2D" stroke-width="2.00272"/>
<line x1="64.1532" y1="27.3574" x2="64.1532" y2="44.7144" stroke="#2A2A2D" stroke-width="2.00272"/>
<line x1="72.4985" y1="36.3705" x2="55.1416" y2="36.3705" stroke="#2A2A2D" stroke-width="2.00272"/>
<line x1="91.5097" y1="27.3574" x2="91.5097" y2="44.7144" stroke="#2A2A2D" stroke-width="2.00272"/>
<line x1="99.855" y1="36.3705" x2="82.498" y2="36.3705" stroke="#2A2A2D" stroke-width="2.00272"/>
<line x1="118.867" y1="27.3574" x2="118.867" y2="44.7144" stroke="#2A2A2D" stroke-width="2.00272"/>
<line x1="127.212" y1="36.3705" x2="109.855" y2="36.3705" stroke="#2A2A2D" stroke-width="2.00272"/>
<line x1="146.225" y1="27.3574" x2="146.225" y2="44.7144" stroke="#2A2A2D" stroke-width="2.00272"/>
<line x1="154.57" y1="36.3705" x2="137.213" y2="36.3705" stroke="#2A2A2D" stroke-width="2.00272"/>
<line x1="173.582" y1="27.3574" x2="173.582" y2="44.7144" stroke="#2A2A2D" stroke-width="2.00272"/>
<line x1="181.927" y1="36.3695" x2="164.57" y2="36.3695" stroke="#2A2A2D" stroke-width="2.00272"/>
<line x1="200.937" y1="27.3574" x2="200.937" y2="44.7144" stroke="#2A2A2D" stroke-width="2.00272"/>
<line x1="209.283" y1="36.3695" x2="191.926" y2="36.3695" stroke="#2A2A2D" stroke-width="2.00272"/>
<line x1="9.43937" y1="54.7139" x2="9.43937" y2="72.0708" stroke="#2A2A2D" stroke-width="2.00272"/>
<line x1="17.7847" y1="63.726" x2="0.427734" y2="63.726" stroke="#2A2A2D" stroke-width="2.00272"/>
<line x1="36.7968" y1="54.7139" x2="36.7968" y2="72.0708" stroke="#2A2A2D" stroke-width="2.00272"/>
<line x1="45.1421" y1="63.726" x2="27.7851" y2="63.726" stroke="#2A2A2D" stroke-width="2.00272"/>
<line x1="64.1532" y1="54.7139" x2="64.1532" y2="72.0708" stroke="#2A2A2D" stroke-width="2.00272"/>
<line x1="72.4985" y1="63.726" x2="55.1416" y2="63.726" stroke="#2A2A2D" stroke-width="2.00272"/>
<line x1="91.5097" y1="54.7139" x2="91.5097" y2="72.0708" stroke="#2A2A2D" stroke-width="2.00272"/>
<line x1="99.855" y1="63.726" x2="82.498" y2="63.726" stroke="#2A2A2D" stroke-width="2.00272"/>
<line x1="118.867" y1="54.7139" x2="118.867" y2="72.0708" stroke="#2A2A2D" stroke-width="2.00272"/>
<line x1="127.212" y1="63.726" x2="109.855" y2="63.726" stroke="#2A2A2D" stroke-width="2.00272"/>
<line x1="146.225" y1="54.7139" x2="146.225" y2="72.0708" stroke="#2A2A2D" stroke-width="2.00272"/>
<line x1="154.57" y1="63.726" x2="137.213" y2="63.726" stroke="#2A2A2D" stroke-width="2.00272"/>
<line x1="173.582" y1="54.7139" x2="173.582" y2="72.0708" stroke="#2A2A2D" stroke-width="2.00272"/>
<line x1="181.927" y1="63.726" x2="164.57" y2="63.726" stroke="#2A2A2D" stroke-width="2.00272"/>
<line x1="200.937" y1="54.7139" x2="200.937" y2="72.0708" stroke="#2A2A2D" stroke-width="2.00272"/>
<line x1="209.283" y1="63.726" x2="191.926" y2="63.726" stroke="#2A2A2D" stroke-width="2.00272"/>
<line x1="9.43937" y1="82.0703" x2="9.43937" y2="99.4273" stroke="#2A2A2D" stroke-width="2.00272"/>
<line x1="17.7847" y1="91.0834" x2="0.427719" y2="91.0834" stroke="#2A2A2D" stroke-width="2.00272"/>
<line x1="36.7968" y1="82.0703" x2="36.7968" y2="99.4273" stroke="#2A2A2D" stroke-width="2.00272"/>
<line x1="45.1421" y1="91.0834" x2="27.7851" y2="91.0834" stroke="#2A2A2D" stroke-width="2.00272"/>
<line x1="64.1532" y1="82.0703" x2="64.1532" y2="99.4273" stroke="#2A2A2D" stroke-width="2.00272"/>
<line x1="72.4985" y1="91.0834" x2="55.1416" y2="91.0834" stroke="#2A2A2D" stroke-width="2.00272"/>
<line x1="91.5097" y1="82.0703" x2="91.5097" y2="99.4273" stroke="#2A2A2D" stroke-width="2.00272"/>
<line x1="99.855" y1="91.0834" x2="82.498" y2="91.0834" stroke="#2A2A2D" stroke-width="2.00272"/>
<line x1="118.867" y1="82.0703" x2="118.867" y2="99.4273" stroke="#2A2A2D" stroke-width="2.00272"/>
<line x1="127.212" y1="91.0834" x2="109.855" y2="91.0834" stroke="#2A2A2D" stroke-width="2.00272"/>
<line x1="146.225" y1="82.0703" x2="146.225" y2="99.4273" stroke="#2A2A2D" stroke-width="2.00272"/>
<line x1="154.57" y1="91.0834" x2="137.213" y2="91.0834" stroke="#2A2A2D" stroke-width="2.00272"/>
<line x1="173.582" y1="82.0713" x2="173.582" y2="99.4282" stroke="#2A2A2D" stroke-width="2.00272"/>
<line x1="181.927" y1="91.0834" x2="164.57" y2="91.0834" stroke="#2A2A2D" stroke-width="2.00272"/>
<line x1="200.937" y1="82.0713" x2="200.937" y2="99.4282" stroke="#2A2A2D" stroke-width="2.00272"/>
<line x1="209.283" y1="91.0834" x2="191.926" y2="91.0834" stroke="#2A2A2D" stroke-width="2.00272"/>
<line x1="9.43937" y1="109" x2="9.43937" y2="126.357" stroke="#2A2A2D" stroke-width="2.00272"/>
<line x1="17.7847" y1="118.012" x2="0.427734" y2="118.012" stroke="#2A2A2D" stroke-width="2.00272"/>
<line x1="36.7968" y1="109" x2="36.7968" y2="126.357" stroke="#2A2A2D" stroke-width="2.00272"/>
<line x1="45.1421" y1="118.012" x2="27.7851" y2="118.012" stroke="#2A2A2D" stroke-width="2.00272"/>
<line x1="64.1532" y1="109" x2="64.1532" y2="126.357" stroke="#2A2A2D" stroke-width="2.00272"/>
<line x1="72.4985" y1="118.012" x2="55.1416" y2="118.012" stroke="#2A2A2D" stroke-width="2.00272"/>
<line x1="91.5097" y1="109" x2="91.5097" y2="126.357" stroke="#2A2A2D" stroke-width="2.00272"/>
<line x1="99.855" y1="118.012" x2="82.498" y2="118.012" stroke="#2A2A2D" stroke-width="2.00272"/>
<line x1="118.867" y1="109" x2="118.867" y2="126.357" stroke="#2A2A2D" stroke-width="2.00272"/>
<line x1="127.212" y1="118.012" x2="109.855" y2="118.012" stroke="#2A2A2D" stroke-width="2.00272"/>
<line x1="146.225" y1="109" x2="146.225" y2="126.357" stroke="#2A2A2D" stroke-width="2.00272"/>
<line x1="154.57" y1="118.012" x2="137.213" y2="118.012" stroke="#2A2A2D" stroke-width="2.00272"/>
<line x1="173.582" y1="109" x2="173.582" y2="126.357" stroke="#2A2A2D" stroke-width="2.00272"/>
<line x1="181.927" y1="118.012" x2="164.57" y2="118.012" stroke="#2A2A2D" stroke-width="2.00272"/>
<line x1="200.937" y1="109" x2="200.937" y2="126.357" stroke="#2A2A2D" stroke-width="2.00272"/>
<line x1="209.283" y1="118.012" x2="191.926" y2="118.012" stroke="#2A2A2D" stroke-width="2.00272"/>
<line x1="9.43937" y1="136.357" x2="9.43937" y2="153.714" stroke="#2A2A2D" stroke-width="2.00272"/>
<line x1="17.7847" y1="145.371" x2="0.427719" y2="145.37" stroke="#2A2A2D" stroke-width="2.00272"/>
<line x1="36.7968" y1="136.357" x2="36.7968" y2="153.714" stroke="#2A2A2D" stroke-width="2.00272"/>
<line x1="45.1421" y1="145.371" x2="27.7851" y2="145.37" stroke="#2A2A2D" stroke-width="2.00272"/>
<line x1="64.1532" y1="136.357" x2="64.1532" y2="153.714" stroke="#2A2A2D" stroke-width="2.00272"/>
<line x1="72.4985" y1="145.371" x2="55.1416" y2="145.37" stroke="#2A2A2D" stroke-width="2.00272"/>
<line x1="91.5097" y1="136.357" x2="91.5097" y2="153.714" stroke="#2A2A2D" stroke-width="2.00272"/>
<line x1="99.855" y1="145.371" x2="82.498" y2="145.37" stroke="#2A2A2D" stroke-width="2.00272"/>
<line x1="118.867" y1="136.357" x2="118.867" y2="153.714" stroke="#2A2A2D" stroke-width="2.00272"/>
<line x1="127.212" y1="145.371" x2="109.855" y2="145.37" stroke="#2A2A2D" stroke-width="2.00272"/>
<line x1="146.225" y1="136.357" x2="146.225" y2="153.714" stroke="#2A2A2D" stroke-width="2.00272"/>
<line x1="154.57" y1="145.371" x2="137.213" y2="145.37" stroke="#2A2A2D" stroke-width="2.00272"/>
<line x1="173.582" y1="136.357" x2="173.582" y2="153.714" stroke="#2A2A2D" stroke-width="2.00272"/>
<line x1="181.927" y1="145.37" x2="164.57" y2="145.37" stroke="#2A2A2D" stroke-width="2.00272"/>
<line x1="200.937" y1="136.357" x2="200.937" y2="153.714" stroke="#2A2A2D" stroke-width="2.00272"/>
<line x1="209.283" y1="145.37" x2="191.926" y2="145.37" stroke="#2A2A2D" stroke-width="2.00272"/>
<line x1="9.43937" y1="163.714" x2="9.43937" y2="181.071" stroke="#2A2A2D" stroke-width="2.00272"/>
<line x1="17.7847" y1="172.726" x2="0.427734" y2="172.726" stroke="#2A2A2D" stroke-width="2.00272"/>
<line x1="36.7968" y1="163.714" x2="36.7968" y2="181.071" stroke="#2A2A2D" stroke-width="2.00272"/>
<line x1="45.1421" y1="172.726" x2="27.7851" y2="172.726" stroke="#2A2A2D" stroke-width="2.00272"/>
<line x1="64.1532" y1="163.714" x2="64.1532" y2="181.071" stroke="#2A2A2D" stroke-width="2.00272"/>
<line x1="72.4985" y1="172.726" x2="55.1416" y2="172.726" stroke="#2A2A2D" stroke-width="2.00272"/>
<line x1="91.5097" y1="163.714" x2="91.5097" y2="181.071" stroke="#2A2A2D" stroke-width="2.00272"/>
<line x1="99.855" y1="172.726" x2="82.498" y2="172.726" stroke="#2A2A2D" stroke-width="2.00272"/>
<line x1="118.867" y1="163.714" x2="118.867" y2="181.071" stroke="#2A2A2D" stroke-width="2.00272"/>
<line x1="127.212" y1="172.726" x2="109.855" y2="172.726" stroke="#2A2A2D" stroke-width="2.00272"/>
<line x1="146.225" y1="163.714" x2="146.225" y2="181.071" stroke="#2A2A2D" stroke-width="2.00272"/>
<line x1="154.57" y1="172.726" x2="137.213" y2="172.726" stroke="#2A2A2D" stroke-width="2.00272"/>
<line x1="173.582" y1="163.714" x2="173.582" y2="181.071" stroke="#2A2A2D" stroke-width="2.00272"/>
<line x1="181.927" y1="172.726" x2="164.57" y2="172.726" stroke="#2A2A2D" stroke-width="2.00272"/>
<line x1="200.937" y1="163.714" x2="200.937" y2="181.071" stroke="#2A2A2D" stroke-width="2.00272"/>
<line x1="209.283" y1="172.726" x2="191.926" y2="172.726" stroke="#2A2A2D" stroke-width="2.00272"/>
<line x1="9.43937" y1="191.07" x2="9.43937" y2="208.427" stroke="#2A2A2D" stroke-width="2.00272"/>
<line x1="17.7847" y1="200.083" x2="0.427719" y2="200.083" stroke="#2A2A2D" stroke-width="2.00272"/>
<line x1="36.7968" y1="191.07" x2="36.7968" y2="208.427" stroke="#2A2A2D" stroke-width="2.00272"/>
<line x1="45.1421" y1="200.083" x2="27.7851" y2="200.083" stroke="#2A2A2D" stroke-width="2.00272"/>
<line x1="64.1532" y1="191.07" x2="64.1532" y2="208.427" stroke="#2A2A2D" stroke-width="2.00272"/>
<line x1="72.4985" y1="200.083" x2="55.1416" y2="200.083" stroke="#2A2A2D" stroke-width="2.00272"/>
<line x1="91.5097" y1="191.07" x2="91.5097" y2="208.427" stroke="#2A2A2D" stroke-width="2.00272"/>
<line x1="99.855" y1="200.083" x2="82.498" y2="200.083" stroke="#2A2A2D" stroke-width="2.00272"/>
<line x1="118.867" y1="191.07" x2="118.867" y2="208.427" stroke="#2A2A2D" stroke-width="2.00272"/>
<line x1="127.212" y1="200.083" x2="109.855" y2="200.083" stroke="#2A2A2D" stroke-width="2.00272"/>
<line x1="146.225" y1="191.07" x2="146.225" y2="208.427" stroke="#2A2A2D" stroke-width="2.00272"/>
<line x1="154.57" y1="200.083" x2="137.213" y2="200.083" stroke="#2A2A2D" stroke-width="2.00272"/>
<line x1="173.582" y1="191.07" x2="173.582" y2="208.427" stroke="#2A2A2D" stroke-width="2.00272"/>
<line x1="181.927" y1="200.083" x2="164.57" y2="200.083" stroke="#2A2A2D" stroke-width="2.00272"/>
<line x1="200.937" y1="191.07" x2="200.937" y2="208.427" stroke="#2A2A2D" stroke-width="2.00272"/>
<line x1="209.283" y1="200.083" x2="191.926" y2="200.083" stroke="#2A2A2D" stroke-width="2.00272"/>
</svg>
