<svg width="319" height="182" viewBox="0 0 319 182" fill="none" xmlns="http://www.w3.org/2000/svg">
<line x1="9.01163" y1="0.357422" x2="9.01163" y2="17.7144" stroke="#2A2A2D" stroke-width="2.00272"/>
<line x1="17.3569" y1="9.3705" x2="-1.53463e-05" y2="9.3705" stroke="#2A2A2D" stroke-width="2.00272"/>
<line x1="36.369" y1="0.357422" x2="36.369" y2="17.7144" stroke="#2A2A2D" stroke-width="2.00272"/>
<line x1="44.7144" y1="9.3705" x2="27.3574" y2="9.3705" stroke="#2A2A2D" stroke-width="2.00272"/>
<line x1="63.7255" y1="0.357422" x2="63.7255" y2="17.7144" stroke="#2A2A2D" stroke-width="2.00272"/>
<line x1="72.0708" y1="9.3705" x2="54.7139" y2="9.3705" stroke="#2A2A2D" stroke-width="2.00272"/>
<line x1="91.0819" y1="0.357422" x2="91.0819" y2="17.7144" stroke="#2A2A2D" stroke-width="2.00272"/>
<line x1="99.4272" y1="9.3705" x2="82.0703" y2="9.3705" stroke="#2A2A2D" stroke-width="2.00272"/>
<line x1="118.439" y1="0.357422" x2="118.439" y2="17.7144" stroke="#2A2A2D" stroke-width="2.00272"/>
<line x1="126.785" y1="9.3705" x2="109.428" y2="9.3705" stroke="#2A2A2D" stroke-width="2.00272"/>
<line x1="145.797" y1="0.357422" x2="145.797" y2="17.7144" stroke="#2A2A2D" stroke-width="2.00272"/>
<line x1="154.142" y1="9.3705" x2="136.785" y2="9.3705" stroke="#2A2A2D" stroke-width="2.00272"/>
<line x1="173.153" y1="0.357422" x2="173.153" y2="17.7144" stroke="#2A2A2D" stroke-width="2.00272"/>
<line x1="181.499" y1="9.3705" x2="164.142" y2="9.3705" stroke="#2A2A2D" stroke-width="2.00272"/>
<line x1="200.51" y1="0.357422" x2="200.51" y2="17.7144" stroke="#2A2A2D" stroke-width="2.00272"/>
<line x1="208.855" y1="9.3705" x2="191.498" y2="9.3705" stroke="#2A2A2D" stroke-width="2.00272"/>
<line x1="227.867" y1="0.357422" x2="227.867" y2="17.7144" stroke="#2A2A2D" stroke-width="2.00272"/>
<line x1="236.212" y1="9.3705" x2="218.855" y2="9.3705" stroke="#2A2A2D" stroke-width="2.00272"/>
<line x1="255.225" y1="0.357422" x2="255.225" y2="17.7144" stroke="#2A2A2D" stroke-width="2.00272"/>
<line x1="263.57" y1="9.3705" x2="246.213" y2="9.3705" stroke="#2A2A2D" stroke-width="2.00272"/>
<line x1="282.582" y1="0.357422" x2="282.582" y2="17.7144" stroke="#2A2A2D" stroke-width="2.00272"/>
<line x1="290.927" y1="9.36855" x2="273.57" y2="9.36855" stroke="#2A2A2D" stroke-width="2.00272"/>
<line x1="309.937" y1="0.357422" x2="309.937" y2="17.7144" stroke="#2A2A2D" stroke-width="2.00272"/>
<line x1="318.283" y1="9.36855" x2="300.926" y2="9.36855" stroke="#2A2A2D" stroke-width="2.00272"/>
<line x1="9.01163" y1="27.7129" x2="9.01163" y2="45.0698" stroke="#2A2A2D" stroke-width="2.00272"/>
<line x1="17.3569" y1="36.724" x2="-1.53463e-05" y2="36.724" stroke="#2A2A2D" stroke-width="2.00272"/>
<line x1="36.369" y1="27.7129" x2="36.369" y2="45.0698" stroke="#2A2A2D" stroke-width="2.00272"/>
<line x1="44.7144" y1="36.724" x2="27.3574" y2="36.724" stroke="#2A2A2D" stroke-width="2.00272"/>
<line x1="63.7255" y1="27.7129" x2="63.7255" y2="45.0698" stroke="#2A2A2D" stroke-width="2.00272"/>
<line x1="72.0708" y1="36.724" x2="54.7139" y2="36.724" stroke="#2A2A2D" stroke-width="2.00272"/>
<line x1="91.0819" y1="27.7129" x2="91.0819" y2="45.0698" stroke="#2A2A2D" stroke-width="2.00272"/>
<line x1="99.4272" y1="36.724" x2="82.0703" y2="36.724" stroke="#2A2A2D" stroke-width="2.00272"/>
<line x1="118.439" y1="27.7129" x2="118.439" y2="45.0698" stroke="#2A2A2D" stroke-width="2.00272"/>
<line x1="126.785" y1="36.724" x2="109.428" y2="36.724" stroke="#2A2A2D" stroke-width="2.00272"/>
<line x1="145.797" y1="27.7129" x2="145.797" y2="45.0698" stroke="#2A2A2D" stroke-width="2.00272"/>
<line x1="154.142" y1="36.724" x2="136.785" y2="36.724" stroke="#2A2A2D" stroke-width="2.00272"/>
<line x1="173.153" y1="27.7129" x2="173.153" y2="45.0698" stroke="#2A2A2D" stroke-width="2.00272"/>
<line x1="181.499" y1="36.724" x2="164.142" y2="36.724" stroke="#2A2A2D" stroke-width="2.00272"/>
<line x1="200.51" y1="27.7129" x2="200.51" y2="45.0698" stroke="#2A2A2D" stroke-width="2.00272"/>
<line x1="208.855" y1="36.724" x2="191.498" y2="36.724" stroke="#2A2A2D" stroke-width="2.00272"/>
<line x1="227.867" y1="27.7129" x2="227.867" y2="45.0698" stroke="#2A2A2D" stroke-width="2.00272"/>
<line x1="236.212" y1="36.724" x2="218.855" y2="36.724" stroke="#2A2A2D" stroke-width="2.00272"/>
<line x1="255.225" y1="27.7129" x2="255.225" y2="45.0698" stroke="#2A2A2D" stroke-width="2.00272"/>
<line x1="263.57" y1="36.724" x2="246.213" y2="36.724" stroke="#2A2A2D" stroke-width="2.00272"/>
<line x1="282.582" y1="27.7148" x2="282.582" y2="45.0718" stroke="#2A2A2D" stroke-width="2.00272"/>
<line x1="290.927" y1="36.7279" x2="273.57" y2="36.7279" stroke="#2A2A2D" stroke-width="2.00272"/>
<line x1="309.937" y1="27.7148" x2="309.937" y2="45.0718" stroke="#2A2A2D" stroke-width="2.00272"/>
<line x1="318.283" y1="36.7279" x2="300.926" y2="36.7279" stroke="#2A2A2D" stroke-width="2.00272"/>
<line x1="9.01163" y1="55.0703" x2="9.01163" y2="72.4273" stroke="#2A2A2D" stroke-width="2.00272"/>
<line x1="17.3569" y1="64.0834" x2="-1.53463e-05" y2="64.0834" stroke="#2A2A2D" stroke-width="2.00272"/>
<line x1="36.369" y1="55.0703" x2="36.369" y2="72.4273" stroke="#2A2A2D" stroke-width="2.00272"/>
<line x1="44.7144" y1="64.0834" x2="27.3574" y2="64.0834" stroke="#2A2A2D" stroke-width="2.00272"/>
<line x1="63.7255" y1="55.0703" x2="63.7255" y2="72.4273" stroke="#2A2A2D" stroke-width="2.00272"/>
<line x1="72.0708" y1="64.0834" x2="54.7139" y2="64.0834" stroke="#2A2A2D" stroke-width="2.00272"/>
<line x1="91.0819" y1="55.0703" x2="91.0819" y2="72.4273" stroke="#2A2A2D" stroke-width="2.00272"/>
<line x1="99.4272" y1="64.0834" x2="82.0703" y2="64.0834" stroke="#2A2A2D" stroke-width="2.00272"/>
<line x1="118.439" y1="55.0703" x2="118.439" y2="72.4273" stroke="#2A2A2D" stroke-width="2.00272"/>
<line x1="126.785" y1="64.0834" x2="109.428" y2="64.0834" stroke="#2A2A2D" stroke-width="2.00272"/>
<line x1="145.797" y1="55.0703" x2="145.797" y2="72.4273" stroke="#2A2A2D" stroke-width="2.00272"/>
<line x1="154.142" y1="64.0834" x2="136.785" y2="64.0834" stroke="#2A2A2D" stroke-width="2.00272"/>
<line x1="173.153" y1="55.0703" x2="173.153" y2="72.4273" stroke="#2A2A2D" stroke-width="2.00272"/>
<line x1="181.499" y1="64.0834" x2="164.142" y2="64.0834" stroke="#2A2A2D" stroke-width="2.00272"/>
<line x1="200.51" y1="55.0703" x2="200.51" y2="72.4273" stroke="#2A2A2D" stroke-width="2.00272"/>
<line x1="208.855" y1="64.0834" x2="191.498" y2="64.0834" stroke="#2A2A2D" stroke-width="2.00272"/>
<line x1="227.867" y1="55.0703" x2="227.867" y2="72.4273" stroke="#2A2A2D" stroke-width="2.00272"/>
<line x1="236.212" y1="64.0834" x2="218.855" y2="64.0834" stroke="#2A2A2D" stroke-width="2.00272"/>
<line x1="255.225" y1="55.0703" x2="255.225" y2="72.4273" stroke="#2A2A2D" stroke-width="2.00272"/>
<line x1="263.57" y1="64.0834" x2="246.213" y2="64.0834" stroke="#2A2A2D" stroke-width="2.00272"/>
<line x1="282.582" y1="55.0703" x2="282.582" y2="72.4273" stroke="#2A2A2D" stroke-width="2.00272"/>
<line x1="290.927" y1="64.0834" x2="273.57" y2="64.0834" stroke="#2A2A2D" stroke-width="2.00272"/>
<line x1="309.937" y1="55.0703" x2="309.937" y2="72.4273" stroke="#2A2A2D" stroke-width="2.00272"/>
<line x1="318.283" y1="64.0834" x2="300.926" y2="64.0834" stroke="#2A2A2D" stroke-width="2.00272"/>
<line x1="9.01163" y1="82" x2="9.01163" y2="99.3569" stroke="#2A2A2D" stroke-width="2.00272"/>
<line x1="17.3569" y1="91.0131" x2="-1.53463e-05" y2="91.0131" stroke="#2A2A2D" stroke-width="2.00272"/>
<line x1="36.369" y1="82" x2="36.369" y2="99.3569" stroke="#2A2A2D" stroke-width="2.00272"/>
<line x1="44.7144" y1="91.0131" x2="27.3574" y2="91.0131" stroke="#2A2A2D" stroke-width="2.00272"/>
<line x1="63.7255" y1="82" x2="63.7255" y2="99.3569" stroke="#2A2A2D" stroke-width="2.00272"/>
<line x1="72.0708" y1="91.0131" x2="54.7139" y2="91.0131" stroke="#2A2A2D" stroke-width="2.00272"/>
<line x1="91.0819" y1="82" x2="91.0819" y2="99.3569" stroke="#2A2A2D" stroke-width="2.00272"/>
<line x1="99.4272" y1="91.0131" x2="82.0703" y2="91.0131" stroke="#2A2A2D" stroke-width="2.00272"/>
<line x1="118.439" y1="82" x2="118.439" y2="99.3569" stroke="#2A2A2D" stroke-width="2.00272"/>
<line x1="126.785" y1="91.0131" x2="109.428" y2="91.0131" stroke="#2A2A2D" stroke-width="2.00272"/>
<line x1="145.797" y1="82" x2="145.797" y2="99.3569" stroke="#2A2A2D" stroke-width="2.00272"/>
<line x1="154.142" y1="91.0131" x2="136.785" y2="91.0131" stroke="#2A2A2D" stroke-width="2.00272"/>
<line x1="173.153" y1="82" x2="173.153" y2="99.3569" stroke="#2A2A2D" stroke-width="2.00272"/>
<line x1="181.499" y1="91.0131" x2="164.142" y2="91.0131" stroke="#2A2A2D" stroke-width="2.00272"/>
<line x1="200.51" y1="82" x2="200.51" y2="99.3569" stroke="#2A2A2D" stroke-width="2.00272"/>
<line x1="208.855" y1="91.0131" x2="191.498" y2="91.0131" stroke="#2A2A2D" stroke-width="2.00272"/>
<line x1="227.867" y1="82" x2="227.867" y2="99.3569" stroke="#2A2A2D" stroke-width="2.00272"/>
<line x1="236.212" y1="91.0131" x2="218.855" y2="91.0131" stroke="#2A2A2D" stroke-width="2.00272"/>
<line x1="255.225" y1="82" x2="255.225" y2="99.3569" stroke="#2A2A2D" stroke-width="2.00272"/>
<line x1="263.57" y1="91.0131" x2="246.213" y2="91.0131" stroke="#2A2A2D" stroke-width="2.00272"/>
<line x1="282.582" y1="82" x2="282.582" y2="99.3569" stroke="#2A2A2D" stroke-width="2.00272"/>
<line x1="290.927" y1="91.0131" x2="273.57" y2="91.0131" stroke="#2A2A2D" stroke-width="2.00272"/>
<line x1="309.937" y1="82" x2="309.937" y2="99.3569" stroke="#2A2A2D" stroke-width="2.00272"/>
<line x1="318.283" y1="91.0131" x2="300.926" y2="91.0131" stroke="#2A2A2D" stroke-width="2.00272"/>
<line x1="9.01163" y1="109.357" x2="9.01163" y2="126.714" stroke="#2A2A2D" stroke-width="2.00272"/>
<line x1="17.3569" y1="118.371" x2="-1.53463e-05" y2="118.37" stroke="#2A2A2D" stroke-width="2.00272"/>
<line x1="36.369" y1="109.357" x2="36.369" y2="126.714" stroke="#2A2A2D" stroke-width="2.00272"/>
<line x1="44.7144" y1="118.371" x2="27.3574" y2="118.37" stroke="#2A2A2D" stroke-width="2.00272"/>
<line x1="63.7255" y1="109.357" x2="63.7255" y2="126.714" stroke="#2A2A2D" stroke-width="2.00272"/>
<line x1="72.0708" y1="118.371" x2="54.7139" y2="118.37" stroke="#2A2A2D" stroke-width="2.00272"/>
<line x1="91.0819" y1="109.357" x2="91.0819" y2="126.714" stroke="#2A2A2D" stroke-width="2.00272"/>
<line x1="99.4272" y1="118.371" x2="82.0703" y2="118.37" stroke="#2A2A2D" stroke-width="2.00272"/>
<line x1="118.439" y1="109.357" x2="118.439" y2="126.714" stroke="#2A2A2D" stroke-width="2.00272"/>
<line x1="126.785" y1="118.371" x2="109.428" y2="118.37" stroke="#2A2A2D" stroke-width="2.00272"/>
<line x1="145.797" y1="109.357" x2="145.797" y2="126.714" stroke="#2A2A2D" stroke-width="2.00272"/>
<line x1="154.142" y1="118.371" x2="136.785" y2="118.37" stroke="#2A2A2D" stroke-width="2.00272"/>
<line x1="173.153" y1="109.357" x2="173.153" y2="126.714" stroke="#2A2A2D" stroke-width="2.00272"/>
<line x1="181.499" y1="118.371" x2="164.142" y2="118.37" stroke="#2A2A2D" stroke-width="2.00272"/>
<line x1="200.51" y1="109.357" x2="200.51" y2="126.714" stroke="#2A2A2D" stroke-width="2.00272"/>
<line x1="208.855" y1="118.371" x2="191.498" y2="118.37" stroke="#2A2A2D" stroke-width="2.00272"/>
<line x1="227.867" y1="109.357" x2="227.867" y2="126.714" stroke="#2A2A2D" stroke-width="2.00272"/>
<line x1="236.212" y1="118.371" x2="218.855" y2="118.37" stroke="#2A2A2D" stroke-width="2.00272"/>
<line x1="255.225" y1="109.357" x2="255.225" y2="126.714" stroke="#2A2A2D" stroke-width="2.00272"/>
<line x1="263.57" y1="118.371" x2="246.213" y2="118.37" stroke="#2A2A2D" stroke-width="2.00272"/>
<line x1="282.582" y1="109.357" x2="282.582" y2="126.714" stroke="#2A2A2D" stroke-width="2.00272"/>
<line x1="290.927" y1="118.369" x2="273.57" y2="118.369" stroke="#2A2A2D" stroke-width="2.00272"/>
<line x1="309.937" y1="109.357" x2="309.937" y2="126.714" stroke="#2A2A2D" stroke-width="2.00272"/>
<line x1="318.283" y1="118.369" x2="300.926" y2="118.369" stroke="#2A2A2D" stroke-width="2.00272"/>
<line x1="9.01163" y1="136.713" x2="9.01163" y2="154.07" stroke="#2A2A2D" stroke-width="2.00272"/>
<line x1="17.3569" y1="145.724" x2="-1.53463e-05" y2="145.724" stroke="#2A2A2D" stroke-width="2.00272"/>
<line x1="36.369" y1="136.713" x2="36.369" y2="154.07" stroke="#2A2A2D" stroke-width="2.00272"/>
<line x1="44.7144" y1="145.724" x2="27.3574" y2="145.724" stroke="#2A2A2D" stroke-width="2.00272"/>
<line x1="63.7255" y1="136.713" x2="63.7255" y2="154.07" stroke="#2A2A2D" stroke-width="2.00272"/>
<line x1="72.0708" y1="145.724" x2="54.7139" y2="145.724" stroke="#2A2A2D" stroke-width="2.00272"/>
<line x1="91.0819" y1="136.713" x2="91.0819" y2="154.07" stroke="#2A2A2D" stroke-width="2.00272"/>
<line x1="99.4272" y1="145.724" x2="82.0703" y2="145.724" stroke="#2A2A2D" stroke-width="2.00272"/>
<line x1="118.439" y1="136.713" x2="118.439" y2="154.07" stroke="#2A2A2D" stroke-width="2.00272"/>
<line x1="126.785" y1="145.724" x2="109.428" y2="145.724" stroke="#2A2A2D" stroke-width="2.00272"/>
<line x1="145.797" y1="136.713" x2="145.797" y2="154.07" stroke="#2A2A2D" stroke-width="2.00272"/>
<line x1="154.142" y1="145.724" x2="136.785" y2="145.724" stroke="#2A2A2D" stroke-width="2.00272"/>
<line x1="173.153" y1="136.713" x2="173.153" y2="154.07" stroke="#2A2A2D" stroke-width="2.00272"/>
<line x1="181.499" y1="145.724" x2="164.142" y2="145.724" stroke="#2A2A2D" stroke-width="2.00272"/>
<line x1="200.51" y1="136.713" x2="200.51" y2="154.07" stroke="#2A2A2D" stroke-width="2.00272"/>
<line x1="208.855" y1="145.724" x2="191.498" y2="145.724" stroke="#2A2A2D" stroke-width="2.00272"/>
<line x1="227.867" y1="136.713" x2="227.867" y2="154.07" stroke="#2A2A2D" stroke-width="2.00272"/>
<line x1="236.212" y1="145.724" x2="218.855" y2="145.724" stroke="#2A2A2D" stroke-width="2.00272"/>
<line x1="255.225" y1="136.713" x2="255.225" y2="154.07" stroke="#2A2A2D" stroke-width="2.00272"/>
<line x1="263.57" y1="145.724" x2="246.213" y2="145.724" stroke="#2A2A2D" stroke-width="2.00272"/>
<line x1="282.582" y1="136.715" x2="282.582" y2="154.072" stroke="#2A2A2D" stroke-width="2.00272"/>
<line x1="290.927" y1="145.728" x2="273.57" y2="145.728" stroke="#2A2A2D" stroke-width="2.00272"/>
<line x1="309.937" y1="136.715" x2="309.937" y2="154.072" stroke="#2A2A2D" stroke-width="2.00272"/>
<line x1="318.283" y1="145.728" x2="300.926" y2="145.728" stroke="#2A2A2D" stroke-width="2.00272"/>
<line x1="9.01163" y1="164.07" x2="9.01163" y2="181.427" stroke="#2A2A2D" stroke-width="2.00272"/>
<line x1="17.3569" y1="173.083" x2="-1.53463e-05" y2="173.083" stroke="#2A2A2D" stroke-width="2.00272"/>
<line x1="36.369" y1="164.07" x2="36.369" y2="181.427" stroke="#2A2A2D" stroke-width="2.00272"/>
<line x1="44.7144" y1="173.083" x2="27.3574" y2="173.083" stroke="#2A2A2D" stroke-width="2.00272"/>
<line x1="63.7255" y1="164.07" x2="63.7255" y2="181.427" stroke="#2A2A2D" stroke-width="2.00272"/>
<line x1="72.0708" y1="173.083" x2="54.7139" y2="173.083" stroke="#2A2A2D" stroke-width="2.00272"/>
<line x1="91.0819" y1="164.07" x2="91.0819" y2="181.427" stroke="#2A2A2D" stroke-width="2.00272"/>
<line x1="99.4272" y1="173.083" x2="82.0703" y2="173.083" stroke="#2A2A2D" stroke-width="2.00272"/>
<line x1="118.439" y1="164.07" x2="118.439" y2="181.427" stroke="#2A2A2D" stroke-width="2.00272"/>
<line x1="126.785" y1="173.083" x2="109.428" y2="173.083" stroke="#2A2A2D" stroke-width="2.00272"/>
<line x1="145.797" y1="164.07" x2="145.797" y2="181.427" stroke="#2A2A2D" stroke-width="2.00272"/>
<line x1="154.142" y1="173.083" x2="136.785" y2="173.083" stroke="#2A2A2D" stroke-width="2.00272"/>
<line x1="173.153" y1="164.07" x2="173.153" y2="181.427" stroke="#2A2A2D" stroke-width="2.00272"/>
<line x1="181.499" y1="173.083" x2="164.142" y2="173.083" stroke="#2A2A2D" stroke-width="2.00272"/>
<line x1="200.51" y1="164.07" x2="200.51" y2="181.427" stroke="#2A2A2D" stroke-width="2.00272"/>
<line x1="208.855" y1="173.083" x2="191.498" y2="173.083" stroke="#2A2A2D" stroke-width="2.00272"/>
<line x1="227.867" y1="164.07" x2="227.867" y2="181.427" stroke="#2A2A2D" stroke-width="2.00272"/>
<line x1="236.212" y1="173.083" x2="218.855" y2="173.083" stroke="#2A2A2D" stroke-width="2.00272"/>
<line x1="255.225" y1="164.07" x2="255.225" y2="181.427" stroke="#2A2A2D" stroke-width="2.00272"/>
<line x1="263.57" y1="173.083" x2="246.213" y2="173.083" stroke="#2A2A2D" stroke-width="2.00272"/>
<line x1="282.582" y1="164.07" x2="282.582" y2="181.427" stroke="#2A2A2D" stroke-width="2.00272"/>
<line x1="290.927" y1="173.083" x2="273.57" y2="173.083" stroke="#2A2A2D" stroke-width="2.00272"/>
<line x1="309.937" y1="164.07" x2="309.937" y2="181.427" stroke="#2A2A2D" stroke-width="2.00272"/>
<line x1="318.283" y1="173.083" x2="300.926" y2="173.083" stroke="#2A2A2D" stroke-width="2.00272"/>
</svg>
