<svg width="12" height="12" viewBox="0 0 12 12" fill="none" xmlns="http://www.w3.org/2000/svg">
<path fill-rule="evenodd" clip-rule="evenodd" d="M9.80215 1.85929L1 10.5853L1.36894 10.9678L10.1711 2.24179L9.80215 1.85929ZM10.7195 10.8713L10.7577 1.29062L10.5886 1.28994V1.21864H1.09188V1.75H10.2245L10.1881 10.8692L10.7195 10.8713Z" fill="#090B08"/>
<path d="M1 10.5853L0.707364 10.8675L0.428946 10.5789L0.713757 10.2965L1 10.5853ZM9.80215 1.85929L9.5159 1.57055L9.80863 1.28035L10.0948 1.57703L9.80215 1.85929ZM1.36894 10.9678L1.65519 11.2565L1.36246 11.5467L1.07631 11.25L1.36894 10.9678ZM10.1711 2.24179L10.4637 1.95953L10.7421 2.24819L10.4573 2.53053L10.1711 2.24179ZM10.7577 1.29062L10.7593 0.884039L11.1659 0.885658L11.1643 1.29224L10.7577 1.29062ZM10.7195 10.8713L11.1261 10.873L11.1245 11.2795L10.7179 11.2779L10.7195 10.8713ZM10.5886 1.28994L10.587 1.69652L10.182 1.69491V1.28994H10.5886ZM10.5886 1.21864V0.81206H10.9952V1.21864H10.5886ZM1.09188 1.21864H0.6853V0.81206H1.09188V1.21864ZM1.09188 1.75V2.15658H0.6853V1.75H1.09188ZM10.2245 1.75V1.34342H10.6327L10.6311 1.75162L10.2245 1.75ZM10.1881 10.8692L10.1865 11.2758L9.77995 11.2742L9.78157 10.8676L10.1881 10.8692ZM0.713757 10.2965L9.5159 1.57055L10.0884 2.14803L1.28624 10.874L0.713757 10.2965ZM1.07631 11.25L0.707364 10.8675L1.29264 10.303L1.66158 10.6855L1.07631 11.25ZM10.4573 2.53053L1.65519 11.2565L1.0827 10.679L9.88485 1.95305L10.4573 2.53053ZM10.0948 1.57703L10.4637 1.95953L9.87846 2.52405L9.50951 2.14155L10.0948 1.57703ZM11.1643 1.29224L11.1261 10.873L10.3129 10.8697L10.3511 1.28899L11.1643 1.29224ZM10.5902 0.883366L10.7593 0.884039L10.7561 1.69719L10.587 1.69652L10.5902 0.883366ZM10.182 1.28994V1.21864H10.9952V1.28994H10.182ZM10.5886 1.62522H1.09188V0.81206H10.5886V1.62522ZM1.49846 1.21864V1.75H0.6853V1.21864H1.49846ZM1.09188 1.34342H10.2245V2.15658H1.09188V1.34342ZM9.78157 10.8676L9.81791 1.74838L10.6311 1.75162L10.5947 10.8708L9.78157 10.8676ZM10.7179 11.2779L10.1865 11.2758L10.1898 10.4626L10.7211 10.4648L10.7179 11.2779Z" fill="white"/>
</svg>
