<svg width="160" height="34" viewBox="0 0 160 34" fill="none" xmlns="http://www.w3.org/2000/svg">
<path d="M31.2333 19.2498V22.6846L20.6139 28.7312L9.99445 22.6846V19.2476L6.00311 16.9746V24.9574L20.6139 33.2765L35.2247 24.9574V16.9774L31.2333 19.2498Z" fill="white"/>
<path d="M41.234 11.7407L20.617 0L0 11.7407L20.617 23.4781L24.6078 21.2058L20.617 18.9334L7.9794 11.7407L20.617 4.54526L33.253 11.7407L28.9318 14.1992L24.9382 16.4716L28.929 18.7472L32.9232 16.4716L41.234 11.7407Z" fill="white"/>
<path d="M32.9226 16.4718L28.9312 14.1994L20.627 9.4707L16.6384 11.7403L16.6356 11.7458L24.9376 16.4718L28.9284 18.7469L32.9226 16.4718Z" fill="white"/>
<path d="M2.49409 11.5605H1.16382V22.2012H2.49409V11.5605Z" fill="white"/>
<path d="M1.82745 25.2777C1.67007 25.278 1.51417 25.2477 1.36869 25.1885C1.2232 25.1293 1.09098 25.0424 0.979595 24.9327C0.8682 24.8231 0.779829 24.6928 0.719536 24.5495C0.659241 24.4061 0.628207 24.2524 0.628207 24.0972V20.515C0.624774 20.3578 0.653206 20.2016 0.711833 20.0554C0.770463 19.9091 0.858109 19.7759 0.969629 19.6635C1.08115 19.5512 1.2143 19.4618 1.36127 19.4009C1.50824 19.34 1.66607 19.3086 1.82551 19.3086C1.98495 19.3086 2.14278 19.34 2.28975 19.4009C2.43673 19.4618 2.56987 19.5512 2.68139 19.6635C2.79291 19.7759 2.88055 19.9091 2.93919 20.0554C2.99781 20.2016 3.02624 20.3578 3.02281 20.515V24.0972C3.02281 24.41 2.89692 24.7101 2.6728 24.9314C2.44867 25.1527 2.14463 25.2773 1.82745 25.2777Z" fill="white"/>
<path d="M54.0127 26.8535V5.9435H68.1603V9.26537H57.8388V14.7227H66.6774V18.0446H57.8388V23.5316H68.1603V26.8535H54.0127ZM84.5264 26.8535H80.7009V25.4299L81.4123 23.1757H80.404C79.5142 25.8253 77.537 27.1501 74.4719 27.1501C72.3959 27.1501 70.7547 26.4185 69.5485 24.9553C68.3622 23.4921 67.7689 21.6433 67.7689 19.4089C67.7689 17.1746 68.3622 15.3258 69.5485 13.8626C70.7547 12.3994 72.3959 11.6678 74.4719 11.6678C77.537 11.6678 79.5142 13.0025 80.404 15.6719H81.4123L80.7009 13.3881V5.05371H84.5264V26.8535ZM79.4842 22.7308C80.2951 21.9992 80.7009 20.8919 80.7009 19.4089C80.7009 17.9259 80.2951 16.8187 79.4842 16.0871C78.674 15.3555 77.5465 14.9897 76.1032 14.9897C73.0978 14.9897 71.5951 16.4628 71.5951 19.4089C71.5951 22.3552 73.0978 23.8282 76.1032 23.8282C77.5465 23.8282 78.674 23.4625 79.4842 22.7308ZM93.3291 23.8282C94.7725 23.8282 95.9095 23.3438 96.7401 22.3749C97.5905 21.3863 98.0153 19.9033 98.0153 17.9259V11.9644H101.812V26.8535H98.0153V24.7477L98.6975 22.4639H97.7184C97.4025 23.8678 96.7598 25.0047 95.791 25.8747C94.8419 26.725 93.596 27.1501 92.0539 27.1501C90.1953 27.1501 88.7417 26.5767 87.6939 25.4299C86.6659 24.2633 86.1511 22.6023 86.1511 20.4471V11.9644H89.9774V19.8539C89.9774 21.2973 90.2348 22.3255 90.7488 22.9384C91.2628 23.5316 92.1227 23.8282 93.3291 23.8282Z" fill="white"/>
<path d="M107.734 27.1493C106.864 27.1493 106.152 26.8724 105.598 26.3188C105.065 25.7454 104.798 25.0335 104.798 24.1833C104.798 23.3528 105.065 22.6608 105.598 22.1071C106.152 21.5535 106.864 21.2766 107.734 21.2766C108.584 21.2766 109.286 21.5535 109.84 22.1071C110.413 22.6608 110.7 23.3528 110.7 24.1833C110.7 25.0335 110.413 25.7454 109.84 26.3188C109.286 26.8724 108.584 27.1493 107.734 27.1493ZM112.884 11.9636H116.71V13.3872L116.028 15.671H117.006C117.896 13.0016 119.873 11.667 122.938 11.667C125.014 11.667 126.646 12.4085 127.832 13.8915C129.039 15.3546 129.641 17.2034 129.641 19.4378C129.641 21.6524 129.039 23.4912 127.832 24.9545C126.646 26.4177 125.014 27.1493 122.938 27.1493C119.873 27.1493 117.896 25.8244 117.006 23.1749H116.028L116.71 25.429V32.399H112.884V11.9636ZM116.71 19.4378C116.71 20.9208 117.115 22.0281 117.926 22.7596C118.756 23.4715 119.884 23.8274 121.307 23.8274C122.731 23.8274 123.838 23.4715 124.629 22.7596C125.42 22.0281 125.816 20.9208 125.816 19.4378C125.816 17.9351 125.42 16.8179 124.629 16.0863C123.838 15.3546 122.731 14.9888 121.307 14.9888C119.884 14.9888 118.756 15.3546 117.926 16.0863C117.115 16.8179 116.71 17.9351 116.71 19.4378ZM130.246 26.8526V14.0101C130.246 13.2587 130.443 12.6853 130.839 12.2898C131.254 11.8944 131.837 11.7065 132.589 11.7263L141.753 11.9636V15.2855L134.071 15.0778V26.8526H130.246ZM143.302 25.0731C141.78 23.689 141.018 21.8007 141.018 19.4081C141.018 17.0156 141.78 15.1272 143.302 13.7431C144.825 12.3591 146.792 11.667 149.205 11.667C151.597 11.667 153.555 12.3591 155.077 13.7431C156.6 15.1272 157.361 17.0156 157.361 19.4081C157.361 21.8007 156.6 23.689 155.077 25.0731C153.555 26.4572 151.597 27.1493 149.205 27.1493C146.792 27.1493 144.825 26.4572 143.302 25.0731ZM146.001 16.1752C145.23 16.9662 144.845 18.0438 144.845 19.4081C144.845 20.7725 145.23 21.8501 146.001 22.641C146.772 23.4319 147.84 23.8274 149.205 23.8274C150.569 23.8274 151.637 23.4319 152.408 22.641C153.179 21.8501 153.565 20.7725 153.565 19.4081C153.565 18.0438 153.179 16.9662 152.408 16.1752C151.637 15.3843 150.569 14.9888 149.205 14.9888C147.84 14.9888 146.772 15.3843 146.001 16.1752Z" fill="#E4632C"/>
</svg>
