<svg width="124" height="27" viewBox="0 0 124 27" fill="none" xmlns="http://www.w3.org/2000/svg">
<g clip-path="url(#clip0_607_137)">
<path d="M24.3357 14.9982V17.6744L16.0617 22.3857L7.7876 17.6744V14.9965L4.67773 13.2256V19.4454L16.0617 25.9271L27.4456 19.4454V13.2277L24.3357 14.9982Z" fill="#06080C"/>
<path d="M32.1273 9.1477L16.0637 0L0 9.1477L16.0637 18.2928L19.1731 16.5223L16.0637 14.7518L6.21713 9.1477L16.0637 3.54142L25.9089 9.1477L22.5421 11.0632L19.4305 12.8337L22.5399 14.6068L25.6519 12.8337L32.1273 9.1477Z" fill="#06080C"/>
<path d="M25.6508 12.8337L22.541 11.0632L16.0708 7.37891L12.9631 9.14727L12.9609 9.15153L19.4294 12.8337L22.5388 14.6064L25.6508 12.8337Z" fill="#06080C"/>
<path d="M1.94468 9.00684H0.908203V17.2974H1.94468V9.00684Z" fill="#06080C"/>
<path d="M1.42288 19.6948C1.30026 19.695 1.17879 19.6714 1.06544 19.6253C0.952084 19.5791 0.849066 19.5114 0.762278 19.426C0.675489 19.3405 0.606635 19.2391 0.559656 19.1274C0.512678 19.0157 0.488497 18.8959 0.488498 18.775V15.984C0.485823 15.8615 0.507975 15.7397 0.553655 15.6258C0.599334 15.5119 0.667623 15.4081 0.754513 15.3205C0.841403 15.233 0.945145 15.1634 1.05966 15.1159C1.17417 15.0684 1.29714 15.0439 1.42137 15.0439C1.5456 15.0439 1.66857 15.0684 1.78308 15.1159C1.89759 15.1634 2.00134 15.233 2.08823 15.3205C2.17512 15.4081 2.24341 15.5119 2.28908 15.6258C2.33476 15.7397 2.35692 15.8615 2.35424 15.984V18.775C2.35424 19.0187 2.25616 19.2525 2.08153 19.4249C1.9069 19.5974 1.67001 19.6944 1.42288 19.6948Z" fill="#06080C"/>
</g>
<path d="M42.0841 20.9453V4.65339H53.1072V7.24161H45.0652V11.4937H51.9517V14.0819H45.0652V18.3571H53.1072V20.9453H42.0841ZM65.8589 20.9453H62.8778V19.8361L63.4324 18.0798H62.6467C61.9534 20.1442 60.4128 21.1764 58.0249 21.1764C56.4073 21.1764 55.1286 20.6064 54.1888 19.4663C53.2644 18.3263 52.8022 16.8858 52.8022 15.1449C52.8022 13.404 53.2644 11.9636 54.1888 10.8235C55.1286 9.68347 56.4073 9.11344 58.0249 9.11344C60.4128 9.11344 61.9534 10.1534 62.6467 12.2332H63.4324L62.8778 10.4538V3.96011H65.8589V20.9453ZM61.9303 17.7331C62.562 17.1631 62.8778 16.3004 62.8778 15.1449C62.8778 13.9895 62.562 13.1267 61.9303 12.5567C61.2987 11.9867 60.4205 11.7017 59.2959 11.7017C56.9542 11.7017 55.7833 12.8494 55.7833 15.1449C55.7833 17.4404 56.9542 18.5882 59.2959 18.5882C60.4205 18.5882 61.2987 18.3032 61.9303 17.7331ZM72.7172 18.5882C73.8419 18.5882 74.7277 18.2107 75.3748 17.4558C76.0373 16.6855 76.3685 15.5301 76.3685 13.9895V9.34454H79.3264V20.9453H76.3685V19.3046L76.9 17.5252H76.1374C75.8909 18.619 75.3902 19.5048 74.6353 20.1827C73.8958 20.8452 72.9252 21.1764 71.7235 21.1764C70.2754 21.1764 69.143 20.7296 68.3265 19.8361C67.5254 18.9271 67.1248 17.633 67.1248 15.9537V9.34454H70.1059V15.4916C70.1059 16.6162 70.3062 17.4173 70.7067 17.8949C71.1073 18.3571 71.7775 18.5882 72.7172 18.5882Z" fill="#06080C"/>
<path d="M83.9407 21.1764C83.2628 21.1764 82.7082 20.9607 82.2768 20.5293C81.8609 20.0826 81.6529 19.528 81.6529 18.8655C81.6529 18.2184 81.8609 17.6792 82.2768 17.2479C82.7082 16.8165 83.2628 16.6008 83.9407 16.6008C84.6032 16.6008 85.1501 16.8165 85.5814 17.2479C86.0282 17.6792 86.2516 18.2184 86.2516 18.8655C86.2516 19.528 86.0282 20.0826 85.5814 20.5293C85.1501 20.9607 84.6032 21.1764 83.9407 21.1764ZM87.9532 9.34454H90.9343V10.4538L90.4028 12.2332H91.1654C91.8586 10.1534 93.3992 9.11344 95.7872 9.11344C97.4048 9.11344 98.6758 9.69117 99.6002 10.8466C100.54 11.9867 101.01 13.4271 101.01 15.168C101.01 16.8935 100.54 18.3263 99.6002 19.4663C98.6758 20.6064 97.4048 21.1764 95.7872 21.1764C93.3992 21.1764 91.8586 20.1442 91.1654 18.0798H90.4028L90.9343 19.8361V25.2667H87.9532V9.34454ZM90.9343 15.168C90.9343 16.3235 91.2501 17.1862 91.8817 17.7563C92.5288 18.3109 93.4069 18.5882 94.5162 18.5882C95.6254 18.5882 96.4882 18.3109 97.1044 17.7563C97.7206 17.1862 98.0288 16.3235 98.0288 15.168C98.0288 13.9972 97.7206 13.1267 97.1044 12.5567C96.4882 11.9867 95.6254 11.7017 94.5162 11.7017C93.4069 11.7017 92.5288 11.9867 91.8817 12.5567C91.2501 13.1267 90.9343 13.9972 90.9343 15.168ZM101.481 20.9453V10.9391C101.481 10.3536 101.635 9.90686 101.943 9.59874C102.266 9.29061 102.721 9.14426 103.306 9.15966L110.447 9.34454V11.9328L104.462 11.771V20.9453H101.481ZM111.654 19.5588C110.467 18.4803 109.874 17.0091 109.874 15.1449C109.874 13.2808 110.467 11.8095 111.654 10.7311C112.84 9.65266 114.373 9.11344 116.252 9.11344C118.116 9.11344 119.642 9.65266 120.828 10.7311C122.014 11.8095 122.607 13.2808 122.607 15.1449C122.607 17.0091 122.014 18.4803 120.828 19.5588C119.642 20.6372 118.116 21.1764 116.252 21.1764C114.373 21.1764 112.84 20.6372 111.654 19.5588ZM113.757 12.626C113.156 13.2423 112.855 14.0819 112.855 15.1449C112.855 16.2079 113.156 17.0476 113.757 17.6638C114.357 18.2801 115.189 18.5882 116.252 18.5882C117.315 18.5882 118.147 18.2801 118.748 17.6638C119.349 17.0476 119.649 16.2079 119.649 15.1449C119.649 14.0819 119.349 13.2423 118.748 12.626C118.147 12.0098 117.315 11.7017 116.252 11.7017C115.189 11.7017 114.357 12.0098 113.757 12.626Z" fill="#E46A3E"/>
<defs>
<clipPath id="clip0_607_137">
<rect width="32.1273" height="25.9273" fill="white"/>
</clipPath>
</defs>
</svg>
