<svg width="178" height="38" viewBox="0 0 178 38" fill="none" xmlns="http://www.w3.org/2000/svg">
<g clip-path="url(#clip0_594_15)">
<path d="M34.9075 21.5145V25.3534L23.0387 32.1114L11.1699 25.3534V21.512L6.70898 18.9717V27.8937L23.0387 37.1914L39.3684 27.8937V18.9748L34.9075 21.5145Z" fill="#06080C"/>
<path d="M46.0851 13.1219L23.0425 0L0 13.1219L23.0425 26.2402L27.5029 23.7005L23.0425 21.1608L8.91818 13.1219L23.0425 5.07999L37.1651 13.1219L32.3355 15.8697L27.8721 18.4094L32.3324 20.9527L36.7965 18.4094L46.0851 13.1219Z" fill="#06080C"/>
<path d="M36.7949 18.4094L32.3339 15.8697L23.0527 10.5847L18.5949 13.1213L18.5918 13.1275L27.8705 18.4094L32.3308 20.9522L36.7949 18.4094Z" fill="#06080C"/>
<path d="M2.78756 12.92H1.30078V24.8125H2.78756V12.92Z" fill="#06080C"/>
<path d="M2.04181 28.2512C1.86592 28.2516 1.69168 28.2177 1.52908 28.1515C1.36648 28.0853 1.2187 27.9882 1.09421 27.8657C0.969713 27.7431 0.870944 27.5975 0.803556 27.4373C0.736167 27.2771 0.701482 27.1053 0.701482 26.9318V22.9283C0.697646 22.7526 0.729422 22.5779 0.794947 22.4145C0.860472 22.251 0.958429 22.1022 1.08307 21.9766C1.20771 21.851 1.35652 21.7512 1.52078 21.6831C1.68505 21.6149 1.86145 21.5798 2.03964 21.5798C2.21784 21.5798 2.39424 21.6149 2.5585 21.6831C2.72276 21.7512 2.87158 21.851 2.99622 21.9766C3.12086 22.1022 3.21881 22.251 3.28434 22.4145C3.34986 22.5779 3.38164 22.7526 3.3778 22.9283V26.9318C3.3778 27.2814 3.23711 27.6167 2.98661 27.8641C2.73612 28.1115 2.39631 28.2507 2.04181 28.2512Z" fill="#06080C"/>
</g>
<path d="M60.3676 29.6595V6.28955H76.1796V10.0022H64.6438V16.1016H74.5222V19.8143H64.6438V25.9469H76.1796V29.6595H60.3676ZM94.4713 29.6595H90.1951V28.0684L90.9907 25.5491H89.8636C88.8692 28.5104 86.6592 29.991 83.2339 29.991C80.9134 29.991 79.0792 29.1734 77.7311 27.538C76.4052 25.9027 75.7422 23.8364 75.7422 21.3392C75.7422 18.8419 76.4052 16.7757 77.7311 15.1403C79.0792 13.505 80.9134 12.6873 83.2339 12.6873C86.6592 12.6873 88.8692 14.179 89.8636 17.1624H90.9907L90.1951 14.6099V5.29508H94.4713V29.6595ZM88.836 25.0518C89.7421 24.2342 90.1951 22.9966 90.1951 21.3392C90.1951 19.6817 89.7421 18.4442 88.836 17.6265C87.93 16.8088 86.6703 16.4 85.057 16.4C81.698 16.4 80.0184 18.0464 80.0184 21.3392C80.0184 24.632 81.698 26.2784 85.057 26.2784C86.6703 26.2784 87.93 25.8695 88.836 25.0518ZM104.309 26.2784C105.923 26.2784 107.193 25.7369 108.121 24.6541C109.072 23.5491 109.547 21.8916 109.547 19.6817V13.0188H113.79V29.6595H109.547V27.306L110.309 24.7535H109.215C108.862 26.3226 108.144 27.5933 107.061 28.5656C106 29.5159 104.608 29.991 102.884 29.991C100.807 29.991 99.1823 29.3502 98.011 28.0684C96.8619 26.7645 96.2873 24.9082 96.2873 22.4994V13.0188H100.563V21.8364C100.563 23.4496 100.851 24.5988 101.425 25.2839C102 25.9469 102.961 26.2784 104.309 26.2784Z" fill="#06080C"/>
<path d="M120.409 29.991C119.436 29.991 118.641 29.6816 118.022 29.0629C117.425 28.422 117.127 27.6264 117.127 26.6761C117.127 25.748 117.425 24.9745 118.022 24.3557C118.641 23.7369 119.436 23.4275 120.409 23.4275C121.359 23.4275 122.144 23.7369 122.762 24.3557C123.403 24.9745 123.724 25.748 123.724 26.6761C123.724 27.6264 123.403 28.422 122.762 29.0629C122.144 29.6816 121.359 29.991 120.409 29.991ZM126.165 13.0188H130.441V14.6099L129.678 17.1624H130.772C131.767 14.179 133.977 12.6873 137.402 12.6873C139.722 12.6873 141.546 13.516 142.872 15.1735C144.22 16.8088 144.894 18.8751 144.894 21.3723C144.894 23.8474 144.22 25.9027 142.872 27.538C141.546 29.1734 139.722 29.991 137.402 29.991C133.977 29.991 131.767 28.5104 130.772 25.5491H129.678L130.441 28.0684V35.8584H126.165V13.0188ZM130.441 21.3723C130.441 23.0298 130.894 24.2673 131.8 25.085C132.728 25.8806 133.988 26.2784 135.579 26.2784C137.17 26.2784 138.408 25.8806 139.292 25.085C140.176 24.2673 140.617 23.0298 140.617 21.3723C140.617 19.6928 140.176 18.4442 139.292 17.6265C138.408 16.8088 137.17 16.4 135.579 16.4C133.988 16.4 132.728 16.8088 131.8 17.6265C130.894 18.4442 130.441 19.6928 130.441 21.3723ZM145.569 29.6595V15.3061C145.569 14.4663 145.79 13.8254 146.232 13.3834C146.696 12.9414 147.348 12.7315 148.188 12.7536L158.431 13.0188V16.7315L149.845 16.4994V29.6595H145.569ZM160.162 27.6706C158.46 26.1237 157.609 24.0132 157.609 21.3392C157.609 18.6652 158.46 16.5547 160.162 15.0077C161.863 13.4608 164.062 12.6873 166.758 12.6873C169.432 12.6873 171.62 13.4608 173.322 15.0077C175.023 16.5547 175.874 18.6652 175.874 21.3392C175.874 24.0132 175.023 26.1237 173.322 27.6706C171.62 29.2176 169.432 29.991 166.758 29.991C164.062 29.991 161.863 29.2176 160.162 27.6706ZM163.178 17.7259C162.316 18.6099 161.885 19.8143 161.885 21.3392C161.885 22.864 162.316 24.0684 163.178 24.9524C164.04 25.8364 165.233 26.2784 166.758 26.2784C168.283 26.2784 169.476 25.8364 170.338 24.9524C171.2 24.0684 171.631 22.864 171.631 21.3392C171.631 19.8143 171.2 18.6099 170.338 17.7259C169.476 16.842 168.283 16.4 166.758 16.4C165.233 16.4 164.04 16.842 163.178 17.7259Z" fill="#E46A3E"/>
<defs>
<clipPath id="clip0_594_15">
<rect width="46.0851" height="37.1915" fill="white"/>
</clipPath>
</defs>
</svg>
