<svg width="279" height="92" viewBox="0 0 279 92" fill="none" xmlns="http://www.w3.org/2000/svg">
<path d="M6.09454 69V2.89769H50.8191V13.3991H18.1899V30.6513H46.131V41.1526H18.1899V58.4986H50.8191V69H6.09454ZM77.0864 2.89769C80.8369 2.89769 84.2123 3.11647 87.2127 3.55403C90.2756 3.99159 93.401 4.92921 96.5889 6.36689C99.7768 7.74207 102.433 9.61731 104.559 11.9926C106.684 14.3054 108.434 17.4933 109.809 21.5564C111.185 25.6194 111.872 30.4013 111.872 35.902C111.872 41.4027 111.185 46.1845 109.809 50.2476C108.434 54.3106 106.684 57.5298 104.559 59.9051C102.433 62.2179 99.7768 64.0931 96.5889 65.5308C93.401 66.9685 90.2756 67.9061 87.2127 68.3437C84.2123 68.7812 80.8369 69 77.0864 69H54.0209V2.89769H77.0864ZM77.0864 58.4986C79.8993 58.4986 82.2121 58.4049 84.0248 58.2174C85.9 58.0298 87.9315 57.4985 90.1193 56.6234C92.3071 55.7483 94.0261 54.5606 95.2762 53.0604C96.5889 51.4977 97.6828 49.2787 98.5579 46.4033C99.433 43.4654 99.8706 39.965 99.8706 35.902C99.8706 32.464 99.5893 29.4636 99.0267 26.9008C98.4642 24.338 97.6203 22.2752 96.4951 20.7125C95.37 19.0873 94.1823 17.7746 92.9322 16.7745C91.682 15.7744 90.0881 15.0555 88.1503 14.618C86.2126 14.1179 84.4623 13.8054 82.8996 13.6803C81.3369 13.4928 79.3992 13.3991 77.0864 13.3991H66.1162V58.4986H77.0864ZM115.18 44.4343V2.89769H127.276V39.9337C127.276 46.7471 128.369 51.7165 130.557 54.8419C132.745 57.9048 137.089 59.4363 143.59 59.4363C150.091 59.4363 154.435 57.9048 156.623 54.8419C158.811 51.7165 159.905 46.7471 159.905 39.9337V2.89769H172V44.4343C172 52.7479 169.593 59.0925 164.78 63.468C160.03 67.7811 152.966 69.9376 143.59 69.9376C134.151 69.9376 127.057 67.7811 122.306 63.468C117.555 59.0925 115.18 52.7479 115.18 44.4343Z" fill="#06080C"/>
<path d="M194.53 67.6873C193.03 69.1875 191.186 69.9376 188.998 69.9376C186.81 69.9376 184.966 69.1875 183.466 67.6873C181.966 66.1871 181.216 64.3119 181.216 62.0616C181.216 59.8738 181.966 58.0611 183.466 56.6234C184.966 55.1232 186.81 54.3731 188.998 54.3731C191.186 54.3731 193.03 55.1232 194.53 56.6234C196.03 58.1236 196.78 59.9363 196.78 62.0616C196.78 64.3119 196.03 66.1871 194.53 67.6873Z" fill="#E46A3E"/>
<path d="M197.267 1.75497C199.523 1.75497 201.429 1.89218 202.984 2.16661C204.57 2.44103 206.049 2.95939 207.421 3.72169C208.823 4.48398 209.875 5.64267 210.577 7.19775C211.278 8.75283 211.629 10.7043 211.629 13.0522C211.629 14.9731 211.385 16.6197 210.897 17.9918C210.409 19.364 209.753 20.4617 208.93 21.2849C208.137 22.1082 207.101 22.7638 205.82 23.2517C204.539 23.709 203.243 24.014 201.932 24.1664C200.621 24.3189 199.066 24.3951 197.267 24.3951H193.013V34H185.695V1.75497H197.267ZM197.724 17.9918C200.133 17.9918 201.826 17.7022 202.801 17.1228C203.808 16.513 204.311 15.1561 204.311 13.0522C204.311 10.9787 203.808 9.65233 202.801 9.07299C201.826 8.46316 200.133 8.15824 197.724 8.15824H193.013V17.9918H197.724ZM213.799 34V1.75497H226.286C235.86 1.75497 240.647 4.75841 240.647 10.7653C240.647 14.9427 237.918 17.3515 232.46 17.9918V19.8213H237.171C239.763 19.8213 241.059 21.1172 241.059 23.709V34H233.741V22.6571H221.117V34H213.799ZM221.117 16.2538H226.286C227.414 16.2538 228.222 16.2538 228.71 16.2538C229.228 16.2233 229.853 16.1471 230.585 16.0251C231.317 15.8727 231.835 15.6592 232.14 15.3848C232.445 15.1104 232.72 14.714 232.963 14.1956C233.207 13.6772 233.329 13.0217 233.329 12.2289C233.329 11.4361 233.207 10.7805 232.963 10.2622C232.72 9.71332 232.445 9.30168 232.14 9.02725C231.835 8.75283 231.317 8.55463 230.585 8.43266C229.853 8.28021 229.228 8.20398 228.71 8.20398C228.222 8.17349 227.414 8.15824 226.286 8.15824H221.117V16.2538ZM242.741 17.8546C242.741 13.0674 244.235 9.11873 247.224 6.00857C250.212 2.86792 254.206 1.29759 259.207 1.29759C264.208 1.29759 268.187 2.86792 271.144 6.00857C274.133 9.11873 275.627 13.0674 275.627 17.8546C275.627 22.6723 274.133 26.6515 271.144 29.7921C268.187 32.9023 264.208 34.4574 259.207 34.4574C254.176 34.4574 250.166 32.9023 247.178 29.7921C244.22 26.6515 242.741 22.6723 242.741 17.8546ZM252.392 10.3994C250.837 12.1984 250.059 14.6835 250.059 17.8546C250.059 21.0258 250.837 23.5261 252.392 25.3556C253.947 27.1546 256.219 28.0541 259.207 28.0541C262.195 28.0541 264.451 27.1546 265.976 25.3556C267.531 23.5261 268.309 21.0258 268.309 17.8546C268.309 14.6835 267.531 12.1984 265.976 10.3994C264.451 8.60037 262.195 7.70086 259.207 7.70086C256.219 7.70086 253.947 8.60037 252.392 10.3994Z" fill="#E46A3E"/>
</svg>
