<svg width="101" height="101" viewBox="0 0 101 101" fill="none" xmlns="http://www.w3.org/2000/svg">
<g filter="url(#filter0_b_369_275)">
<rect width="99" height="99" rx="49.5" transform="matrix(-1 0 0 1 100 1)" fill="url(#paint0_linear_369_275)"/>
<rect x="0.5" y="-0.5" width="100" height="100" rx="50" transform="matrix(-1 0 0 1 101 1)" stroke="url(#paint1_radial_369_275)" stroke-opacity="0.46"/>
<rect x="0.5" y="-0.5" width="100" height="100" rx="50" transform="matrix(-1 0 0 1 101 1)" stroke="url(#paint2_radial_369_275)" stroke-opacity="0.33"/>
<rect x="0.5" y="-0.5" width="100" height="100" rx="50" transform="matrix(-1 0 0 1 101 1)" stroke="url(#paint3_radial_369_275)"/>
</g>
<path d="M56.1229 49.5143L47.2355 43.43C46.8251 43.1488 46.4116 43 46.0678 43C45.4033 43 44.9922 43.5333 44.9922 44.4261V57.576C44.9922 58.4677 45.4028 59 46.0657 59C46.41 59 46.8169 58.8511 47.2283 58.5691L56.1198 52.485C56.6916 52.093 57.0083 51.5657 57.0083 50.9993C57.0084 50.4333 56.6954 49.906 56.1229 49.5143Z" fill="white"/>
<defs>
<filter id="filter0_b_369_275" x="-42" y="-42" width="185" height="185" filterUnits="userSpaceOnUse" color-interpolation-filters="sRGB">
<feFlood flood-opacity="0" result="BackgroundImageFix"/>
<feGaussianBlur in="BackgroundImageFix" stdDeviation="21"/>
<feComposite in2="SourceAlpha" operator="in" result="effect1_backgroundBlur_369_275"/>
<feBlend mode="normal" in="SourceGraphic" in2="effect1_backgroundBlur_369_275" result="shape"/>
</filter>
<linearGradient id="paint0_linear_369_275" x1="0" y1="0" x2="60.5254" y2="118.63" gradientUnits="userSpaceOnUse">
<stop stop-color="white" stop-opacity="0.06"/>
<stop offset="1" stop-color="white" stop-opacity="0"/>
</linearGradient>
<radialGradient id="paint1_radial_369_275" cx="0" cy="0" r="1" gradientUnits="userSpaceOnUse" gradientTransform="translate(121.066 228) rotate(-118.588) scale(281.561 140.992)">
<stop stop-color="white"/>
<stop offset="1" stop-color="white" stop-opacity="0"/>
</radialGradient>
<radialGradient id="paint2_radial_369_275" cx="0" cy="0" r="1" gradientUnits="userSpaceOnUse" gradientTransform="translate(-19.3825 -67.5) rotate(52.6443) scale(211.422 110.667)">
<stop stop-color="white"/>
<stop offset="1" stop-color="white" stop-opacity="0"/>
</radialGradient>
<radialGradient id="paint3_radial_369_275" cx="0" cy="0" r="1" gradientUnits="userSpaceOnUse" gradientTransform="translate(49.5 49.5) rotate(135.957) scale(75.4744 56.3738)">
<stop stop-color="white"/>
<stop offset="1" stop-color="#151515" stop-opacity="0"/>
</radialGradient>
</defs>
</svg>
